<?xml version="1.0" encoding="UTF-8" standalone="no"?>
<svg width="1132px" height="500px" viewBox="0 0 1132 500" version="1.1" xmlns="http://www.w3.org/2000/svg" xmlns:xlink="http://www.w3.org/1999/xlink" xmlns:sketch="http://www.bohemiancoding.com/sketch/ns">
    <!-- Generator: sketchtool 3.5.1 (25234) - http://www.bohemiancoding.com/sketch -->
    <title>4D03749B-B791-424A-8446-C10377CCD4D8</title>
    <desc>Created with sketchtool.</desc>
    <defs></defs>
    <g id="Page-1" stroke="none" stroke-width="1" fill="none" fill-rule="evenodd" sketch:type="MSPage">
        <g id="lifeslicewebbie" sketch:type="MSArtboardGroup" transform="translate(-40.000000, -1718.000000)" fill="#6CB2D8">
            <g id="bg-discover" sketch:type="MSLayerGroup" transform="translate(40.000000, 1718.000000)">
                <path d="M1056,360 C1042.1875,360 1030.9975,371.1825 1031,385 C1031,398.815 1042.18,410 1056,410 C1069.8125,410 1081,398.82 1081,385 C1081.0025,371.1875 1069.82,360 1056,360 L1056,360 Z M1036,385 C1036,379.6575 1038.08,374.635 1041.8575,370.8575 C1045.635,367.08 1050.6575,365 1056,365 C1061.2425,365 1066.1675,367.0125 1069.9175,370.655 L1048.72,377.72 L1041.655,398.92 C1038.0125,395.1675 1036,390.24 1036,385 L1036,385 Z M1052.6725,381.6725 L1059.325,388.33 L1059.325,388.33 L1049.345,391.6575 L1052.6725,381.6725 L1052.6725,381.6725 Z M1056,405 C1050.76,405 1045.835,402.9875 1042.085,399.3475 L1063.28,392.28 L1070.345,371.08 C1073.9875,374.8325 1076,379.76 1076,385 C1076,396.055 1067.055,405 1056,405 L1056,405 Z" id="Shape" opacity="0.100000001" sketch:type="MSShapeGroup"></path>
                <path d="M335.000003,360 C321.187503,360 309.997503,371.1825 310.000003,385 C310.000003,398.815 321.180003,410 335.000003,410 C348.812503,410 360.000003,398.82 360.000003,385 C360.002503,371.1875 348.820003,360 335.000003,360 L335.000003,360 Z M315.000003,385 C315.000003,379.6575 317.080003,374.635 320.857503,370.8575 C324.635003,367.08 329.657503,365 335.000003,365 C340.242503,365 345.167503,367.0125 348.917503,370.655 L327.720003,377.72 L320.655003,398.92 C317.012503,395.1675 315.000003,390.24 315.000003,385 L315.000003,385 Z M331.672503,381.6725 L338.325003,388.33 L338.325003,388.33 L328.345003,391.6575 L331.672503,381.6725 L331.672503,381.6725 Z M335.000003,405 C329.760003,405 324.835003,402.9875 321.085003,399.3475 L342.280003,392.28 L349.345003,371.08 C352.987503,374.8325 355.000003,379.76 355.000003,385 C355.000003,396.055 346.055003,405 335.000003,405 L335.000003,405 Z" id="Shape" opacity="0.100000001" sketch:type="MSShapeGroup"></path>
                <path d="M115.000001,270 C101.187501,270 89.9975013,281.1825 90.0000013,295 C90.0000013,308.815 101.180001,320 115.000001,320 C128.812501,320 140.000001,308.82 140.000001,295 C140.002501,281.1875 128.820001,270 115.000001,270 L115.000001,270 Z M95.0000013,295 C95.0000013,289.6575 97.0800013,284.635 100.857501,280.8575 C104.635001,277.08 109.657501,275 115.000001,275 C120.242501,275 125.167501,277.0125 128.917501,280.655 L107.720001,287.72 L100.655001,308.92 C97.0125013,305.1675 95.0000013,300.24 95.0000013,295 L95.0000013,295 Z M111.672501,291.6725 L118.325001,298.33 L118.325001,298.33 L108.345001,301.6575 L111.672501,291.6725 L111.672501,291.6725 Z M115.000001,315 C109.760001,315 104.835001,312.9875 101.085001,309.3475 L122.280001,302.28 L129.345001,281.08 C132.987501,284.8325 135.000001,289.76 135.000001,295 C135.000001,306.055 126.055001,315 115.000001,315 L115.000001,315 Z" id="Shape" opacity="0.100000001" sketch:type="MSShapeGroup"></path>
                <path d="M475.000005,90 C461.187505,90 449.997505,101.1825 450.000005,115 C450.000005,128.815 461.180005,140 475.000005,140 C488.812505,140 500.000005,128.82 500.000005,115 C500.002505,101.1875 488.820005,90 475.000005,90 L475.000005,90 Z M455.000005,115 C455.000005,109.6575 457.080005,104.635 460.857505,100.8575 C464.635005,97.08 469.657505,95 475.000005,95 C480.242505,95 485.167505,97.0125 488.917505,100.655 L467.720005,107.72 L460.655005,128.92 C457.012505,125.1675 455.000005,120.24 455.000005,115 L455.000005,115 Z M471.672505,111.6725 L478.325005,118.33 L478.325005,118.33 L468.345005,121.6575 L471.672505,111.6725 L471.672505,111.6725 Z M475.000005,135 C469.760005,135 464.835005,132.9875 461.085005,129.3475 L482.280005,122.28 L489.345005,101.08 C492.987505,104.8325 495.000005,109.76 495.000005,115 C495.000005,126.055 486.055005,135 475.000005,135 L475.000005,135 Z" id="Shape" opacity="0.100000001" sketch:type="MSShapeGroup"></path>
                <path d="M65.0000004,0 C51.1875004,0 39.9975004,11.1825 40.0000004,25 C40.0000004,38.815 51.1800004,50 65.0000004,50 C78.8125004,50 90.0000004,38.82 90.0000004,25 C90.0025004,11.1875 78.8200004,0 65.0000004,0 L65.0000004,0 Z M45.0000004,25 C45.0000004,19.6575 47.0800004,14.635 50.8575004,10.8575 C54.6350004,7.08 59.6575004,5 65.0000004,5 C70.2425004,5 75.1675004,7.0125 78.9175004,10.655 L57.7200004,17.72 L50.6550004,38.92 C47.0125004,35.1675 45.0000004,30.24 45.0000004,25 L45.0000004,25 Z M61.6725004,21.6725 L68.3250004,28.33 L68.3250004,28.33 L58.3450004,31.6575 L61.6725004,21.6725 L61.6725004,21.6725 Z M65.0000004,45 C59.7600004,45 54.8350004,42.9875 51.0850004,39.3475 L72.2800004,32.28 L79.3450004,11.08 C82.9875004,14.8325 85.0000004,19.76 85.0000004,25 C85.0000004,36.055 76.0550004,45 65.0000004,45 L65.0000004,45 Z" id="Shape" opacity="0.0299999993" sketch:type="MSShapeGroup"></path>
                <path d="M875.000008,0 C861.187508,0 849.997508,11.1825 850.000008,25 C850.000008,38.815 861.180008,50 875.000008,50 C888.812508,50 900.000008,38.82 900.000008,25 C900.002508,11.1875 888.820008,0 875.000008,0 L875.000008,0 Z M855.000008,25 C855.000008,19.6575 857.080008,14.635 860.857508,10.8575 C864.635008,7.08 869.657508,5 875.000008,5 C880.242508,5 885.167508,7.0125 888.917508,10.655 L867.720008,17.72 L860.655008,38.92 C857.012508,35.1675 855.000008,30.24 855.000008,25 L855.000008,25 Z M871.672508,21.6725 L878.325008,28.33 L878.325008,28.33 L868.345008,31.6575 L871.672508,21.6725 L871.672508,21.6725 Z M875.000008,45 C869.760008,45 864.835008,42.9875 861.085008,39.3475 L882.280008,32.28 L889.345008,11.08 C892.987508,14.8325 895.000008,19.76 895.000008,25 C895.000008,36.055 886.055008,45 875.000008,45 L875.000008,45 Z" id="Shape" opacity="0.0299999993" sketch:type="MSShapeGroup"></path>
                <path d="M1056,0 C1042.1875,0 1030.9975,11.1825 1031,25 C1031,38.815 1042.18,50 1056,50 C1069.8125,50 1081,38.82 1081,25 C1081.0025,11.1875 1069.82,0 1056,0 L1056,0 Z M1036,25 C1036,19.6575 1038.08,14.635 1041.8575,10.8575 C1045.635,7.08 1050.6575,5 1056,5 C1061.2425,5 1066.1675,7.0125 1069.9175,10.655 L1048.72,17.72 L1041.655,38.92 C1038.0125,35.1675 1036,30.24 1036,25 L1036,25 Z M1052.6725,21.6725 L1059.325,28.33 L1059.325,28.33 L1049.345,31.6575 L1052.6725,21.6725 L1052.6725,21.6725 Z M1056,45 C1050.76,45 1045.835,42.9875 1042.085,39.3475 L1063.28,32.28 L1070.345,11.08 C1073.9875,14.8325 1076,19.76 1076,25 C1076,36.055 1067.055,45 1056,45 L1056,45 Z" id="Shape" opacity="0.0299999993" sketch:type="MSShapeGroup"></path>
                <path d="M966.000004,0 C952.187504,0 940.997504,11.1825 941.000004,25 C941.000004,38.815 952.180004,50 966.000004,50 C979.812504,50 991.000004,38.82 991.000004,25 C991.002504,11.1875 979.820004,0 966.000004,0 L966.000004,0 Z M946.000004,25 C946.000004,19.6575 948.080004,14.635 951.857504,10.8575 C955.635004,7.08 960.657504,5 966.000004,5 C971.242504,5 976.167504,7.0125 979.917504,10.655 L958.720004,17.72 L951.655004,38.92 C948.012504,35.1675 946.000004,30.24 946.000004,25 L946.000004,25 Z M962.672504,21.6725 L969.325004,28.33 L969.325004,28.33 L959.345004,31.6575 L962.672504,21.6725 L962.672504,21.6725 Z M966.000004,45 C960.760004,45 955.835004,42.9875 952.085004,39.3475 L973.280004,32.28 L980.345004,11.08 C983.987504,14.8325 986.000004,19.76 986.000004,25 C986.000004,36.055 977.055004,45 966.000004,45 L966.000004,45 Z" id="Shape" opacity="0.0299999993" sketch:type="MSShapeGroup"></path>
                <path d="M785.000007,0 C771.187507,0 759.997507,11.1825 760.000007,25 C760.000007,38.815 771.180007,50 785.000007,50 C798.812507,50 810.000007,38.82 810.000007,25 C810.002507,11.1875 798.820007,0 785.000007,0 L785.000007,0 Z M765.000007,25 C765.000007,19.6575 767.080007,14.635 770.857507,10.8575 C774.635007,7.08 779.657507,5 785.000007,5 C790.242507,5 795.167507,7.0125 798.917507,10.655 L777.720007,17.72 L770.655007,38.92 C767.012507,35.1675 765.000007,30.24 765.000007,25 L765.000007,25 Z M781.672507,21.6725 L788.325007,28.33 L788.325007,28.33 L778.345007,31.6575 L781.672507,21.6725 L781.672507,21.6725 Z M785.000007,45 C779.760007,45 774.835007,42.9875 771.085007,39.3475 L792.280007,32.28 L799.345007,11.08 C802.987507,14.8325 805.000007,19.76 805.000007,25 C805.000007,36.055 796.055007,45 785.000007,45 L785.000007,45 Z" id="Shape" opacity="0.0299999993" sketch:type="MSShapeGroup"></path>
                <path d="M695.000006,0 C681.187506,0 669.997506,11.1825 670.000006,25 C670.000006,38.815 681.180006,50 695.000006,50 C708.812506,50 720.000006,38.82 720.000006,25 C720.002506,11.1875 708.820006,0 695.000006,0 L695.000006,0 Z M675.000006,25 C675.000006,19.6575 677.080006,14.635 680.857506,10.8575 C684.635006,7.08 689.657506,5 695.000006,5 C700.242506,5 705.167506,7.0125 708.917506,10.655 L687.720006,17.72 L680.655006,38.92 C677.012506,35.1675 675.000006,30.24 675.000006,25 L675.000006,25 Z M691.672506,21.6725 L698.325006,28.33 L698.325006,28.33 L688.345006,31.6575 L691.672506,21.6725 L691.672506,21.6725 Z M695.000006,45 C689.760006,45 684.835006,42.9875 681.085006,39.3475 L702.280006,32.28 L709.345006,11.08 C712.987506,14.8325 715.000006,19.76 715.000006,25 C715.000006,36.055 706.055006,45 695.000006,45 L695.000006,45 Z" id="Shape" opacity="0.0299999993" sketch:type="MSShapeGroup"></path>
                <path d="M605.000005,0 C591.187505,0 579.997505,11.1825 580.000005,25 C580.000005,38.815 591.180005,50 605.000005,50 C618.812505,50 630.000005,38.82 630.000005,25 C630.002505,11.1875 618.820005,0 605.000005,0 L605.000005,0 Z M585.000005,25 C585.000005,19.6575 587.080005,14.635 590.857505,10.8575 C594.635005,7.08 599.657505,5 605.000005,5 C610.242505,5 615.167505,7.0125 618.917505,10.655 L597.720005,17.72 L590.655005,38.92 C587.012505,35.1675 585.000005,30.24 585.000005,25 L585.000005,25 Z M601.672505,21.6725 L608.325005,28.33 L608.325005,28.33 L598.345005,31.6575 L601.672505,21.6725 L601.672505,21.6725 Z M605.000005,45 C599.760005,45 594.835005,42.9875 591.085005,39.3475 L612.280005,32.28 L619.345005,11.08 C622.987505,14.8325 625.000005,19.76 625.000005,25 C625.000005,36.055 616.055005,45 605.000005,45 L605.000005,45 Z" id="Shape" opacity="0.0299999993" sketch:type="MSShapeGroup"></path>
                <path d="M515.000005,0 C501.187505,0 489.997505,11.1825 490.000005,25 C490.000005,38.815 501.180005,50 515.000005,50 C528.812505,50 540.000005,38.82 540.000005,25 C540.002505,11.1875 528.820005,0 515.000005,0 L515.000005,0 Z M495.000005,25 C495.000005,19.6575 497.080005,14.635 500.857505,10.8575 C504.635005,7.08 509.657505,5 515.000005,5 C520.242505,5 525.167505,7.0125 528.917505,10.655 L507.720005,17.72 L500.655005,38.92 C497.012505,35.1675 495.000005,30.24 495.000005,25 L495.000005,25 Z M511.672505,21.6725 L518.325005,28.33 L518.325005,28.33 L508.345005,31.6575 L511.672505,21.6725 L511.672505,21.6725 Z M515.000005,45 C509.760005,45 504.835005,42.9875 501.085005,39.3475 L522.280005,32.28 L529.345005,11.08 C532.987505,14.8325 535.000005,19.76 535.000005,25 C535.000005,36.055 526.055005,45 515.000005,45 L515.000005,45 Z" id="Shape" opacity="0.0299999993" sketch:type="MSShapeGroup"></path>
                <path d="M425.000004,0 C411.187504,0 399.997504,11.1825 400.000004,25 C400.000004,38.815 411.180004,50 425.000004,50 C438.812504,50 450.000004,38.82 450.000004,25 C450.002504,11.1875 438.820004,0 425.000004,0 L425.000004,0 Z M405.000004,25 C405.000004,19.6575 407.080004,14.635 410.857504,10.8575 C414.635004,7.08 419.657504,5 425.000004,5 C430.242504,5 435.167504,7.0125 438.917504,10.655 L417.720004,17.72 L410.655004,38.92 C407.012504,35.1675 405.000004,30.24 405.000004,25 L405.000004,25 Z M421.672504,21.6725 L428.325004,28.33 L428.325004,28.33 L418.345004,31.6575 L421.672504,21.6725 L421.672504,21.6725 Z M425.000004,45 C419.760004,45 414.835004,42.9875 411.085004,39.3475 L432.280004,32.28 L439.345004,11.08 C442.987504,14.8325 445.000004,19.76 445.000004,25 C445.000004,36.055 436.055004,45 425.000004,45 L425.000004,45 Z" id="Shape" opacity="0.0299999993" sketch:type="MSShapeGroup"></path>
                <path d="M335.000003,0 C321.187503,0 309.997503,11.1825 310.000003,25 C310.000003,38.815 321.180003,50 335.000003,50 C348.812503,50 360.000003,38.82 360.000003,25 C360.002503,11.1875 348.820003,0 335.000003,0 L335.000003,0 Z M315.000003,25 C315.000003,19.6575 317.080003,14.635 320.857503,10.8575 C324.635003,7.08 329.657503,5 335.000003,5 C340.242503,5 345.167503,7.0125 348.917503,10.655 L327.720003,17.72 L320.655003,38.92 C317.012503,35.1675 315.000003,30.24 315.000003,25 L315.000003,25 Z M331.672503,21.6725 L338.325003,28.33 L338.325003,28.33 L328.345003,31.6575 L331.672503,21.6725 L331.672503,21.6725 Z M335.000003,45 C329.760003,45 324.835003,42.9875 321.085003,39.3475 L342.280003,32.28 L349.345003,11.08 C352.987503,14.8325 355.000003,19.76 355.000003,25 C355.000003,36.055 346.055003,45 335.000003,45 L335.000003,45 Z" id="Shape" opacity="0.0299999993" sketch:type="MSShapeGroup"></path>
                <path d="M245.000002,0 C231.187502,0 219.997502,11.1825 220.000002,25 C220.000002,38.815 231.180002,50 245.000002,50 C258.812502,50 270.000002,38.82 270.000002,25 C270.002502,11.1875 258.820002,0 245.000002,0 L245.000002,0 Z M225.000002,25 C225.000002,19.6575 227.080002,14.635 230.857502,10.8575 C234.635002,7.08 239.657502,5 245.000002,5 C250.242502,5 255.167502,7.0125 258.917502,10.655 L237.720002,17.72 L230.655002,38.92 C227.012502,35.1675 225.000002,30.24 225.000002,25 L225.000002,25 Z M241.672502,21.6725 L248.325002,28.33 L248.325002,28.33 L238.345002,31.6575 L241.672502,21.6725 L241.672502,21.6725 Z M245.000002,45 C239.760002,45 234.835002,42.9875 231.085002,39.3475 L252.280002,32.28 L259.345002,11.08 C262.987502,14.8325 265.000002,19.76 265.000002,25 C265.000002,36.055 256.055002,45 245.000002,45 L245.000002,45 Z" id="Shape" opacity="0.0299999993" sketch:type="MSShapeGroup"></path>
                <path d="M155.000001,0 C141.187501,0 129.997501,11.1825 130.000001,25 C130.000001,38.815 141.180001,50 155.000001,50 C168.812501,50 180.000001,38.82 180.000001,25 C180.002501,11.1875 168.820001,0 155.000001,0 L155.000001,0 Z M135.000001,25 C135.000001,19.6575 137.080001,14.635 140.857501,10.8575 C144.635001,7.08 149.657501,5 155.000001,5 C160.242501,5 165.167501,7.0125 168.917501,10.655 L147.720001,17.72 L140.655001,38.92 C137.012501,35.1675 135.000001,30.24 135.000001,25 L135.000001,25 Z M151.672501,21.6725 L158.325001,28.33 L158.325001,28.33 L148.345001,31.6575 L151.672501,21.6725 L151.672501,21.6725 Z M155.000001,45 C149.760001,45 144.835001,42.9875 141.085001,39.3475 L162.280001,32.28 L169.345001,11.08 C172.987501,14.8325 175.000001,19.76 175.000001,25 C175.000001,36.055 166.055001,45 155.000001,45 L155.000001,45 Z" id="Shape" opacity="0.0299999993" sketch:type="MSShapeGroup"></path>
                <path d="M65.0000004,180 C51.1875004,180 39.9975004,191.1825 40.0000004,205 C40.0000004,218.815 51.1800004,230 65.0000004,230 C78.8125004,230 90.0000004,218.82 90.0000004,205 C90.0025004,191.1875 78.8200004,180 65.0000004,180 L65.0000004,180 Z M45.0000004,205 C45.0000004,199.6575 47.0800004,194.635 50.8575004,190.8575 C54.6350004,187.08 59.6575004,185 65.0000004,185 C70.2425004,185 75.1675004,187.0125 78.9175004,190.655 L57.7200004,197.72 L50.6550004,218.92 C47.0125004,215.1675 45.0000004,210.24 45.0000004,205 L45.0000004,205 Z M61.6725004,201.6725 L68.3250004,208.33 L68.3250004,208.33 L58.3450004,211.6575 L61.6725004,201.6725 L61.6725004,201.6725 Z M65.0000004,225 C59.7600004,225 54.8350004,222.9875 51.0850004,219.3475 L72.2800004,212.28 L79.3450004,191.08 C82.9875004,194.8325 85.0000004,199.76 85.0000004,205 C85.0000004,216.055 76.0550004,225 65.0000004,225 L65.0000004,225 Z" id="Shape" opacity="0.0299999993" sketch:type="MSShapeGroup"></path>
                <path d="M875.000008,180 C861.187508,180 849.997508,191.1825 850.000008,205 C850.000008,218.815 861.180008,230 875.000008,230 C888.812508,230 900.000008,218.82 900.000008,205 C900.002508,191.1875 888.820008,180 875.000008,180 L875.000008,180 Z M855.000008,205 C855.000008,199.6575 857.080008,194.635 860.857508,190.8575 C864.635008,187.08 869.657508,185 875.000008,185 C880.242508,185 885.167508,187.0125 888.917508,190.655 L867.720008,197.72 L860.655008,218.92 C857.012508,215.1675 855.000008,210.24 855.000008,205 L855.000008,205 Z M871.672508,201.6725 L878.325008,208.33 L878.325008,208.33 L868.345008,211.6575 L871.672508,201.6725 L871.672508,201.6725 Z M875.000008,225 C869.760008,225 864.835008,222.9875 861.085008,219.3475 L882.280008,212.28 L889.345008,191.08 C892.987508,194.8325 895.000008,199.76 895.000008,205 C895.000008,216.055 886.055008,225 875.000008,225 L875.000008,225 Z" id="Shape" opacity="0.0299999993" sketch:type="MSShapeGroup"></path>
                <path d="M1056,180 C1042.1875,180 1030.9975,191.1825 1031,205 C1031,218.815 1042.18,230 1056,230 C1069.8125,230 1081,218.82 1081,205 C1081.0025,191.1875 1069.82,180 1056,180 L1056,180 Z M1036,205 C1036,199.6575 1038.08,194.635 1041.8575,190.8575 C1045.635,187.08 1050.6575,185 1056,185 C1061.2425,185 1066.1675,187.0125 1069.9175,190.655 L1048.72,197.72 L1041.655,218.92 C1038.0125,215.1675 1036,210.24 1036,205 L1036,205 Z M1052.6725,201.6725 L1059.325,208.33 L1059.325,208.33 L1049.345,211.6575 L1052.6725,201.6725 L1052.6725,201.6725 Z M1056,225 C1050.76,225 1045.835,222.9875 1042.085,219.3475 L1063.28,212.28 L1070.345,191.08 C1073.9875,194.8325 1076,199.76 1076,205 C1076,216.055 1067.055,225 1056,225 L1056,225 Z" id="Shape" opacity="0.0299999993" sketch:type="MSShapeGroup"></path>
                <path d="M966.000004,180 C952.187504,180 940.997504,191.1825 941.000004,205 C941.000004,218.815 952.180004,230 966.000004,230 C979.812504,230 991.000004,218.82 991.000004,205 C991.002504,191.1875 979.820004,180 966.000004,180 L966.000004,180 Z M946.000004,205 C946.000004,199.6575 948.080004,194.635 951.857504,190.8575 C955.635004,187.08 960.657504,185 966.000004,185 C971.242504,185 976.167504,187.0125 979.917504,190.655 L958.720004,197.72 L951.655004,218.92 C948.012504,215.1675 946.000004,210.24 946.000004,205 L946.000004,205 Z M962.672504,201.6725 L969.325004,208.33 L969.325004,208.33 L959.345004,211.6575 L962.672504,201.6725 L962.672504,201.6725 Z M966.000004,225 C960.760004,225 955.835004,222.9875 952.085004,219.3475 L973.280004,212.28 L980.345004,191.08 C983.987504,194.8325 986.000004,199.76 986.000004,205 C986.000004,216.055 977.055004,225 966.000004,225 L966.000004,225 Z" id="Shape" opacity="0.0299999993" sketch:type="MSShapeGroup"></path>
                <path d="M785.000007,180 C771.187507,180 759.997507,191.1825 760.000007,205 C760.000007,218.815 771.180007,230 785.000007,230 C798.812507,230 810.000007,218.82 810.000007,205 C810.002507,191.1875 798.820007,180 785.000007,180 L785.000007,180 Z M765.000007,205 C765.000007,199.6575 767.080007,194.635 770.857507,190.8575 C774.635007,187.08 779.657507,185 785.000007,185 C790.242507,185 795.167507,187.0125 798.917507,190.655 L777.720007,197.72 L770.655007,218.92 C767.012507,215.1675 765.000007,210.24 765.000007,205 L765.000007,205 Z M781.672507,201.6725 L788.325007,208.33 L788.325007,208.33 L778.345007,211.6575 L781.672507,201.6725 L781.672507,201.6725 Z M785.000007,225 C779.760007,225 774.835007,222.9875 771.085007,219.3475 L792.280007,212.28 L799.345007,191.08 C802.987507,194.8325 805.000007,199.76 805.000007,205 C805.000007,216.055 796.055007,225 785.000007,225 L785.000007,225 Z" id="Shape" opacity="0.0299999993" sketch:type="MSShapeGroup"></path>
                <path d="M695.000006,180 C681.187506,180 669.997506,191.1825 670.000006,205 C670.000006,218.815 681.180006,230 695.000006,230 C708.812506,230 720.000006,218.82 720.000006,205 C720.002506,191.1875 708.820006,180 695.000006,180 L695.000006,180 Z M675.000006,205 C675.000006,199.6575 677.080006,194.635 680.857506,190.8575 C684.635006,187.08 689.657506,185 695.000006,185 C700.242506,185 705.167506,187.0125 708.917506,190.655 L687.720006,197.72 L680.655006,218.92 C677.012506,215.1675 675.000006,210.24 675.000006,205 L675.000006,205 Z M691.672506,201.6725 L698.325006,208.33 L698.325006,208.33 L688.345006,211.6575 L691.672506,201.6725 L691.672506,201.6725 Z M695.000006,225 C689.760006,225 684.835006,222.9875 681.085006,219.3475 L702.280006,212.28 L709.345006,191.08 C712.987506,194.8325 715.000006,199.76 715.000006,205 C715.000006,216.055 706.055006,225 695.000006,225 L695.000006,225 Z" id="Shape" opacity="0.0299999993" sketch:type="MSShapeGroup"></path>
                <path d="M605.000005,180 C591.187505,180 579.997505,191.1825 580.000005,205 C580.000005,218.815 591.180005,230 605.000005,230 C618.812505,230 630.000005,218.82 630.000005,205 C630.002505,191.1875 618.820005,180 605.000005,180 L605.000005,180 Z M585.000005,205 C585.000005,199.6575 587.080005,194.635 590.857505,190.8575 C594.635005,187.08 599.657505,185 605.000005,185 C610.242505,185 615.167505,187.0125 618.917505,190.655 L597.720005,197.72 L590.655005,218.92 C587.012505,215.1675 585.000005,210.24 585.000005,205 L585.000005,205 Z M601.672505,201.6725 L608.325005,208.33 L608.325005,208.33 L598.345005,211.6575 L601.672505,201.6725 L601.672505,201.6725 Z M605.000005,225 C599.760005,225 594.835005,222.9875 591.085005,219.3475 L612.280005,212.28 L619.345005,191.08 C622.987505,194.8325 625.000005,199.76 625.000005,205 C625.000005,216.055 616.055005,225 605.000005,225 L605.000005,225 Z" id="Shape" opacity="0.0299999993" sketch:type="MSShapeGroup"></path>
                <path d="M515.000005,180 C501.187505,180 489.997505,191.1825 490.000005,205 C490.000005,218.815 501.180005,230 515.000005,230 C528.812505,230 540.000005,218.82 540.000005,205 C540.002505,191.1875 528.820005,180 515.000005,180 L515.000005,180 Z M495.000005,205 C495.000005,199.6575 497.080005,194.635 500.857505,190.8575 C504.635005,187.08 509.657505,185 515.000005,185 C520.242505,185 525.167505,187.0125 528.917505,190.655 L507.720005,197.72 L500.655005,218.92 C497.012505,215.1675 495.000005,210.24 495.000005,205 L495.000005,205 Z M511.672505,201.6725 L518.325005,208.33 L518.325005,208.33 L508.345005,211.6575 L511.672505,201.6725 L511.672505,201.6725 Z M515.000005,225 C509.760005,225 504.835005,222.9875 501.085005,219.3475 L522.280005,212.28 L529.345005,191.08 C532.987505,194.8325 535.000005,199.76 535.000005,205 C535.000005,216.055 526.055005,225 515.000005,225 L515.000005,225 Z" id="Shape" opacity="0.0299999993" sketch:type="MSShapeGroup"></path>
                <path d="M425.000004,180 C411.187504,180 399.997504,191.1825 400.000004,205 C400.000004,218.815 411.180004,230 425.000004,230 C438.812504,230 450.000004,218.82 450.000004,205 C450.002504,191.1875 438.820004,180 425.000004,180 L425.000004,180 Z M405.000004,205 C405.000004,199.6575 407.080004,194.635 410.857504,190.8575 C414.635004,187.08 419.657504,185 425.000004,185 C430.242504,185 435.167504,187.0125 438.917504,190.655 L417.720004,197.72 L410.655004,218.92 C407.012504,215.1675 405.000004,210.24 405.000004,205 L405.000004,205 Z M421.672504,201.6725 L428.325004,208.33 L428.325004,208.33 L418.345004,211.6575 L421.672504,201.6725 L421.672504,201.6725 Z M425.000004,225 C419.760004,225 414.835004,222.9875 411.085004,219.3475 L432.280004,212.28 L439.345004,191.08 C442.987504,194.8325 445.000004,199.76 445.000004,205 C445.000004,216.055 436.055004,225 425.000004,225 L425.000004,225 Z" id="Shape" opacity="0.0299999993" sketch:type="MSShapeGroup"></path>
                <path d="M335.000003,180 C321.187503,180 309.997503,191.1825 310.000003,205 C310.000003,218.815 321.180003,230 335.000003,230 C348.812503,230 360.000003,218.82 360.000003,205 C360.002503,191.1875 348.820003,180 335.000003,180 L335.000003,180 Z M315.000003,205 C315.000003,199.6575 317.080003,194.635 320.857503,190.8575 C324.635003,187.08 329.657503,185 335.000003,185 C340.242503,185 345.167503,187.0125 348.917503,190.655 L327.720003,197.72 L320.655003,218.92 C317.012503,215.1675 315.000003,210.24 315.000003,205 L315.000003,205 Z M331.672503,201.6725 L338.325003,208.33 L338.325003,208.33 L328.345003,211.6575 L331.672503,201.6725 L331.672503,201.6725 Z M335.000003,225 C329.760003,225 324.835003,222.9875 321.085003,219.3475 L342.280003,212.28 L349.345003,191.08 C352.987503,194.8325 355.000003,199.76 355.000003,205 C355.000003,216.055 346.055003,225 335.000003,225 L335.000003,225 Z" id="Shape" opacity="0.0299999993" sketch:type="MSShapeGroup"></path>
                <path d="M245.000002,180 C231.187502,180 219.997502,191.1825 220.000002,205 C220.000002,218.815 231.180002,230 245.000002,230 C258.812502,230 270.000002,218.82 270.000002,205 C270.002502,191.1875 258.820002,180 245.000002,180 L245.000002,180 Z M225.000002,205 C225.000002,199.6575 227.080002,194.635 230.857502,190.8575 C234.635002,187.08 239.657502,185 245.000002,185 C250.242502,185 255.167502,187.0125 258.917502,190.655 L237.720002,197.72 L230.655002,218.92 C227.012502,215.1675 225.000002,210.24 225.000002,205 L225.000002,205 Z M241.672502,201.6725 L248.325002,208.33 L248.325002,208.33 L238.345002,211.6575 L241.672502,201.6725 L241.672502,201.6725 Z M245.000002,225 C239.760002,225 234.835002,222.9875 231.085002,219.3475 L252.280002,212.28 L259.345002,191.08 C262.987502,194.8325 265.000002,199.76 265.000002,205 C265.000002,216.055 256.055002,225 245.000002,225 L245.000002,225 Z" id="Shape" opacity="0.0299999993" sketch:type="MSShapeGroup"></path>
                <path d="M155.000001,180 C141.187501,180 129.997501,191.1825 130.000001,205 C130.000001,218.815 141.180001,230 155.000001,230 C168.812501,230 180.000001,218.82 180.000001,205 C180.002501,191.1875 168.820001,180 155.000001,180 L155.000001,180 Z M135.000001,205 C135.000001,199.6575 137.080001,194.635 140.857501,190.8575 C144.635001,187.08 149.657501,185 155.000001,185 C160.242501,185 165.167501,187.0125 168.917501,190.655 L147.720001,197.72 L140.655001,218.92 C137.012501,215.1675 135.000001,210.24 135.000001,205 L135.000001,205 Z M151.672501,201.6725 L158.325001,208.33 L158.325001,208.33 L148.345001,211.6575 L151.672501,201.6725 L151.672501,201.6725 Z M155.000001,225 C149.760001,225 144.835001,222.9875 141.085001,219.3475 L162.280001,212.28 L169.345001,191.08 C172.987501,194.8325 175.000001,199.76 175.000001,205 C175.000001,216.055 166.055001,225 155.000001,225 L155.000001,225 Z" id="Shape" opacity="0.0299999993" sketch:type="MSShapeGroup"></path>
                <path d="M65.0000004,360 C51.1875004,360 39.9975004,371.1825 40.0000004,385 C40.0000004,398.815 51.1800004,410 65.0000004,410 C78.8125004,410 90.0000004,398.82 90.0000004,385 C90.0025004,371.1875 78.8200004,360 65.0000004,360 L65.0000004,360 Z M45.0000004,385 C45.0000004,379.6575 47.0800004,374.635 50.8575004,370.8575 C54.6350004,367.08 59.6575004,365 65.0000004,365 C70.2425004,365 75.1675004,367.0125 78.9175004,370.655 L57.7200004,377.72 L50.6550004,398.92 C47.0125004,395.1675 45.0000004,390.24 45.0000004,385 L45.0000004,385 Z M61.6725004,381.6725 L68.3250004,388.33 L68.3250004,388.33 L58.3450004,391.6575 L61.6725004,381.6725 L61.6725004,381.6725 Z M65.0000004,405 C59.7600004,405 54.8350004,402.9875 51.0850004,399.3475 L72.2800004,392.28 L79.3450004,371.08 C82.9875004,374.8325 85.0000004,379.76 85.0000004,385 C85.0000004,396.055 76.0550004,405 65.0000004,405 L65.0000004,405 Z" id="Shape" opacity="0.0299999993" sketch:type="MSShapeGroup"></path>
                <path d="M875.000008,360 C861.187508,360 849.997508,371.1825 850.000008,385 C850.000008,398.815 861.180008,410 875.000008,410 C888.812508,410 900.000008,398.82 900.000008,385 C900.002508,371.1875 888.820008,360 875.000008,360 L875.000008,360 Z M855.000008,385 C855.000008,379.6575 857.080008,374.635 860.857508,370.8575 C864.635008,367.08 869.657508,365 875.000008,365 C880.242508,365 885.167508,367.0125 888.917508,370.655 L867.720008,377.72 L860.655008,398.92 C857.012508,395.1675 855.000008,390.24 855.000008,385 L855.000008,385 Z M871.672508,381.6725 L878.325008,388.33 L878.325008,388.33 L868.345008,391.6575 L871.672508,381.6725 L871.672508,381.6725 Z M875.000008,405 C869.760008,405 864.835008,402.9875 861.085008,399.3475 L882.280008,392.28 L889.345008,371.08 C892.987508,374.8325 895.000008,379.76 895.000008,385 C895.000008,396.055 886.055008,405 875.000008,405 L875.000008,405 Z" id="Shape" opacity="0.0299999993" sketch:type="MSShapeGroup"></path>
                <path d="M966.000004,360 C952.187504,360 940.997504,371.1825 941.000004,385 C941.000004,398.815 952.180004,410 966.000004,410 C979.812504,410 991.000004,398.82 991.000004,385 C991.002504,371.1875 979.820004,360 966.000004,360 L966.000004,360 Z M946.000004,385 C946.000004,379.6575 948.080004,374.635 951.857504,370.8575 C955.635004,367.08 960.657504,365 966.000004,365 C971.242504,365 976.167504,367.0125 979.917504,370.655 L958.720004,377.72 L951.655004,398.92 C948.012504,395.1675 946.000004,390.24 946.000004,385 L946.000004,385 Z M962.672504,381.6725 L969.325004,388.33 L969.325004,388.33 L959.345004,391.6575 L962.672504,381.6725 L962.672504,381.6725 Z M966.000004,405 C960.760004,405 955.835004,402.9875 952.085004,399.3475 L973.280004,392.28 L980.345004,371.08 C983.987504,374.8325 986.000004,379.76 986.000004,385 C986.000004,396.055 977.055004,405 966.000004,405 L966.000004,405 Z" id="Shape" opacity="0.0299999993" sketch:type="MSShapeGroup"></path>
                <path d="M785.000007,360 C771.187507,360 759.997507,371.1825 760.000007,385 C760.000007,398.815 771.180007,410 785.000007,410 C798.812507,410 810.000007,398.82 810.000007,385 C810.002507,371.1875 798.820007,360 785.000007,360 L785.000007,360 Z M765.000007,385 C765.000007,379.6575 767.080007,374.635 770.857507,370.8575 C774.635007,367.08 779.657507,365 785.000007,365 C790.242507,365 795.167507,367.0125 798.917507,370.655 L777.720007,377.72 L770.655007,398.92 C767.012507,395.1675 765.000007,390.24 765.000007,385 L765.000007,385 Z M781.672507,381.6725 L788.325007,388.33 L788.325007,388.33 L778.345007,391.6575 L781.672507,381.6725 L781.672507,381.6725 Z M785.000007,405 C779.760007,405 774.835007,402.9875 771.085007,399.3475 L792.280007,392.28 L799.345007,371.08 C802.987507,374.8325 805.000007,379.76 805.000007,385 C805.000007,396.055 796.055007,405 785.000007,405 L785.000007,405 Z" id="Shape" opacity="0.0299999993" sketch:type="MSShapeGroup"></path>
                <path d="M695.000006,360 C681.187506,360 669.997506,371.1825 670.000006,385 C670.000006,398.815 681.180006,410 695.000006,410 C708.812506,410 720.000006,398.82 720.000006,385 C720.002506,371.1875 708.820006,360 695.000006,360 L695.000006,360 Z M675.000006,385 C675.000006,379.6575 677.080006,374.635 680.857506,370.8575 C684.635006,367.08 689.657506,365 695.000006,365 C700.242506,365 705.167506,367.0125 708.917506,370.655 L687.720006,377.72 L680.655006,398.92 C677.012506,395.1675 675.000006,390.24 675.000006,385 L675.000006,385 Z M691.672506,381.6725 L698.325006,388.33 L698.325006,388.33 L688.345006,391.6575 L691.672506,381.6725 L691.672506,381.6725 Z M695.000006,405 C689.760006,405 684.835006,402.9875 681.085006,399.3475 L702.280006,392.28 L709.345006,371.08 C712.987506,374.8325 715.000006,379.76 715.000006,385 C715.000006,396.055 706.055006,405 695.000006,405 L695.000006,405 Z" id="Shape" opacity="0.0299999993" sketch:type="MSShapeGroup"></path>
                <path d="M605.000005,360 C591.187505,360 579.997505,371.1825 580.000005,385 C580.000005,398.815 591.180005,410 605.000005,410 C618.812505,410 630.000005,398.82 630.000005,385 C630.002505,371.1875 618.820005,360 605.000005,360 L605.000005,360 Z M585.000005,385 C585.000005,379.6575 587.080005,374.635 590.857505,370.8575 C594.635005,367.08 599.657505,365 605.000005,365 C610.242505,365 615.167505,367.0125 618.917505,370.655 L597.720005,377.72 L590.655005,398.92 C587.012505,395.1675 585.000005,390.24 585.000005,385 L585.000005,385 Z M601.672505,381.6725 L608.325005,388.33 L608.325005,388.33 L598.345005,391.6575 L601.672505,381.6725 L601.672505,381.6725 Z M605.000005,405 C599.760005,405 594.835005,402.9875 591.085005,399.3475 L612.280005,392.28 L619.345005,371.08 C622.987505,374.8325 625.000005,379.76 625.000005,385 C625.000005,396.055 616.055005,405 605.000005,405 L605.000005,405 Z" id="Shape" opacity="0.0299999993" sketch:type="MSShapeGroup"></path>
                <path d="M515.000005,360 C501.187505,360 489.997505,371.1825 490.000005,385 C490.000005,398.815 501.180005,410 515.000005,410 C528.812505,410 540.000005,398.82 540.000005,385 C540.002505,371.1875 528.820005,360 515.000005,360 L515.000005,360 Z M495.000005,385 C495.000005,379.6575 497.080005,374.635 500.857505,370.8575 C504.635005,367.08 509.657505,365 515.000005,365 C520.242505,365 525.167505,367.0125 528.917505,370.655 L507.720005,377.72 L500.655005,398.92 C497.012505,395.1675 495.000005,390.24 495.000005,385 L495.000005,385 Z M511.672505,381.6725 L518.325005,388.33 L518.325005,388.33 L508.345005,391.6575 L511.672505,381.6725 L511.672505,381.6725 Z M515.000005,405 C509.760005,405 504.835005,402.9875 501.085005,399.3475 L522.280005,392.28 L529.345005,371.08 C532.987505,374.8325 535.000005,379.76 535.000005,385 C535.000005,396.055 526.055005,405 515.000005,405 L515.000005,405 Z" id="Shape" opacity="0.0299999993" sketch:type="MSShapeGroup"></path>
                <path d="M425.000004,360 C411.187504,360 399.997504,371.1825 400.000004,385 C400.000004,398.815 411.180004,410 425.000004,410 C438.812504,410 450.000004,398.82 450.000004,385 C450.002504,371.1875 438.820004,360 425.000004,360 L425.000004,360 Z M405.000004,385 C405.000004,379.6575 407.080004,374.635 410.857504,370.8575 C414.635004,367.08 419.657504,365 425.000004,365 C430.242504,365 435.167504,367.0125 438.917504,370.655 L417.720004,377.72 L410.655004,398.92 C407.012504,395.1675 405.000004,390.24 405.000004,385 L405.000004,385 Z M421.672504,381.6725 L428.325004,388.33 L428.325004,388.33 L418.345004,391.6575 L421.672504,381.6725 L421.672504,381.6725 Z M425.000004,405 C419.760004,405 414.835004,402.9875 411.085004,399.3475 L432.280004,392.28 L439.345004,371.08 C442.987504,374.8325 445.000004,379.76 445.000004,385 C445.000004,396.055 436.055004,405 425.000004,405 L425.000004,405 Z" id="Shape" opacity="0.0299999993" sketch:type="MSShapeGroup"></path>
                <path d="M245.000002,360 C231.187502,360 219.997502,371.1825 220.000002,385 C220.000002,398.815 231.180002,410 245.000002,410 C258.812502,410 270.000002,398.82 270.000002,385 C270.002502,371.1875 258.820002,360 245.000002,360 L245.000002,360 Z M225.000002,385 C225.000002,379.6575 227.080002,374.635 230.857502,370.8575 C234.635002,367.08 239.657502,365 245.000002,365 C250.242502,365 255.167502,367.0125 258.917502,370.655 L237.720002,377.72 L230.655002,398.92 C227.012502,395.1675 225.000002,390.24 225.000002,385 L225.000002,385 Z M241.672502,381.6725 L248.325002,388.33 L248.325002,388.33 L238.345002,391.6575 L241.672502,381.6725 L241.672502,381.6725 Z M245.000002,405 C239.760002,405 234.835002,402.9875 231.085002,399.3475 L252.280002,392.28 L259.345002,371.08 C262.987502,374.8325 265.000002,379.76 265.000002,385 C265.000002,396.055 256.055002,405 245.000002,405 L245.000002,405 Z" id="Shape" opacity="0.0299999993" sketch:type="MSShapeGroup"></path>
                <path d="M155.000001,360 C141.187501,360 129.997501,371.1825 130.000001,385 C130.000001,398.815 141.180001,410 155.000001,410 C168.812501,410 180.000001,398.82 180.000001,385 C180.002501,371.1875 168.820001,360 155.000001,360 L155.000001,360 Z M135.000001,385 C135.000001,379.6575 137.080001,374.635 140.857501,370.8575 C144.635001,367.08 149.657501,365 155.000001,365 C160.242501,365 165.167501,367.0125 168.917501,370.655 L147.720001,377.72 L140.655001,398.92 C137.012501,395.1675 135.000001,390.24 135.000001,385 L135.000001,385 Z M151.672501,381.6725 L158.325001,388.33 L158.325001,388.33 L148.345001,391.6575 L151.672501,381.6725 L151.672501,381.6725 Z M155.000001,405 C149.760001,405 144.835001,402.9875 141.085001,399.3475 L162.280001,392.28 L169.345001,371.08 C172.987501,374.8325 175.000001,379.76 175.000001,385 C175.000001,396.055 166.055001,405 155.000001,405 L155.000001,405 Z" id="Shape" opacity="0.0299999993" sketch:type="MSShapeGroup"></path>
                <path d="M25.0000004,450 C11.1875004,450 -0.00249958118,461.1825 4.18819179e-07,475 C4.18819179e-07,488.815 11.1800004,500 25.0000004,500 C38.8125004,500 50.0000004,488.82 50.0000004,475 C50.0025004,461.1875 38.8200004,450 25.0000004,450 L25.0000004,450 Z M5.00000042,475 C5.00000042,469.6575 7.08000042,464.635 10.8575004,460.8575 C14.6350004,457.08 19.6575004,455 25.0000004,455 C30.2425004,455 35.1675004,457.0125 38.9175004,460.655 L17.7200004,467.72 L10.6550004,488.92 C7.01250042,485.1675 5.00000042,480.24 5.00000042,475 L5.00000042,475 Z M21.6725004,471.6725 L28.3250004,478.33 L28.3250004,478.33 L18.3450004,481.6575 L21.6725004,471.6725 L21.6725004,471.6725 Z M25.0000004,495 C19.7600004,495 14.8350004,492.9875 11.0850004,489.3475 L32.2800004,482.28 L39.3450004,461.08 C42.9875004,464.8325 45.0000004,469.76 45.0000004,475 C45.0000004,486.055 36.0550004,495 25.0000004,495 L25.0000004,495 Z" id="Shape" opacity="0.0299999993" sketch:type="MSShapeGroup"></path>
                <path d="M835.000008,450 C821.187508,450 809.997508,461.1825 810.000008,475 C810.000008,488.815 821.180008,500 835.000008,500 C848.812508,500 860.000008,488.82 860.000008,475 C860.002508,461.1875 848.820008,450 835.000008,450 L835.000008,450 Z M815.000008,475 C815.000008,469.6575 817.080008,464.635 820.857508,460.8575 C824.635008,457.08 829.657508,455 835.000008,455 C840.242508,455 845.167508,457.0125 848.917508,460.655 L827.720008,467.72 L820.655008,488.92 C817.012508,485.1675 815.000008,480.24 815.000008,475 L815.000008,475 Z M831.672508,471.6725 L838.325008,478.33 L838.325008,478.33 L828.345008,481.6575 L831.672508,471.6725 L831.672508,471.6725 Z M835.000008,495 C829.760008,495 824.835008,492.9875 821.085008,489.3475 L842.280008,482.28 L849.345008,461.08 C852.987508,464.8325 855.000008,469.76 855.000008,475 C855.000008,486.055 846.055008,495 835.000008,495 L835.000008,495 Z" id="Shape" opacity="0.0299999993" sketch:type="MSShapeGroup"></path>
                <path d="M1016,450 C1002.1875,450 990.997505,461.1825 991.000005,475 C991.000005,488.815 1002.18,500 1016,500 C1029.8125,500 1041,488.82 1041,475 C1041.0025,461.1875 1029.82,450 1016,450 L1016,450 Z M996.000005,475 C996.000005,469.6575 998.080005,464.635 1001.8575,460.8575 C1005.635,457.08 1010.6575,455 1016,455 C1021.2425,455 1026.1675,457.0125 1029.9175,460.655 L1008.72,467.72 L1001.655,488.92 C998.012505,485.1675 996.000005,480.24 996.000005,475 L996.000005,475 Z M1012.6725,471.6725 L1019.325,478.33 L1019.325,478.33 L1009.345,481.6575 L1012.6725,471.6725 L1012.6725,471.6725 Z M1016,495 C1010.76,495 1005.835,492.9875 1002.085,489.3475 L1023.28,482.28 L1030.345,461.08 C1033.9875,464.8325 1036,469.76 1036,475 C1036,486.055 1027.055,495 1016,495 L1016,495 Z" id="Shape" opacity="0.0299999993" sketch:type="MSShapeGroup"></path>
                <path d="M1107,450 C1093.1875,450 1081.9975,461.1825 1082,475 C1082,488.815 1093.18,500 1107,500 C1120.8125,500 1132,488.82 1132,475 C1132.0025,461.1875 1120.82,450 1107,450 L1107,450 Z M1087,475 C1087,469.6575 1089.08,464.635 1092.8575,460.8575 C1096.635,457.08 1101.6575,455 1107,455 C1112.2425,455 1117.1675,457.0125 1120.9175,460.655 L1099.72,467.72 L1092.655,488.92 C1089.0125,485.1675 1087,480.24 1087,475 L1087,475 Z M1103.6725,471.6725 L1110.325,478.33 L1110.325,478.33 L1100.345,481.6575 L1103.6725,471.6725 L1103.6725,471.6725 Z M1107,495 C1101.76,495 1096.835,492.9875 1093.085,489.3475 L1114.28,482.28 L1121.345,461.08 C1124.9875,464.8325 1127,469.76 1127,475 C1127,486.055 1118.055,495 1107,495 L1107,495 Z" id="Shape" opacity="0.0299999993" sketch:type="MSShapeGroup"></path>
                <path d="M926.000004,450 C912.187504,450 900.997504,461.1825 901.000004,475 C901.000004,488.815 912.180004,500 926.000004,500 C939.812504,500 951.000004,488.82 951.000004,475 C951.002504,461.1875 939.820004,450 926.000004,450 L926.000004,450 Z M906.000004,475 C906.000004,469.6575 908.080004,464.635 911.857504,460.8575 C915.635004,457.08 920.657504,455 926.000004,455 C931.242504,455 936.167504,457.0125 939.917504,460.655 L918.720004,467.72 L911.655004,488.92 C908.012504,485.1675 906.000004,480.24 906.000004,475 L906.000004,475 Z M922.672504,471.6725 L929.325004,478.33 L929.325004,478.33 L919.345004,481.6575 L922.672504,471.6725 L922.672504,471.6725 Z M926.000004,495 C920.760004,495 915.835004,492.9875 912.085004,489.3475 L933.280004,482.28 L940.345004,461.08 C943.987504,464.8325 946.000004,469.76 946.000004,475 C946.000004,486.055 937.055004,495 926.000004,495 L926.000004,495 Z" id="Shape" opacity="0.0299999993" sketch:type="MSShapeGroup"></path>
                <path d="M745.000007,450 C731.187507,450 719.997507,461.1825 720.000007,475 C720.000007,488.815 731.180007,500 745.000007,500 C758.812507,500 770.000007,488.82 770.000007,475 C770.002507,461.1875 758.820007,450 745.000007,450 L745.000007,450 Z M725.000007,475 C725.000007,469.6575 727.080007,464.635 730.857507,460.8575 C734.635007,457.08 739.657507,455 745.000007,455 C750.242507,455 755.167507,457.0125 758.917507,460.655 L737.720007,467.72 L730.655007,488.92 C727.012507,485.1675 725.000007,480.24 725.000007,475 L725.000007,475 Z M741.672507,471.6725 L748.325007,478.33 L748.325007,478.33 L738.345007,481.6575 L741.672507,471.6725 L741.672507,471.6725 Z M745.000007,495 C739.760007,495 734.835007,492.9875 731.085007,489.3475 L752.280007,482.28 L759.345007,461.08 C762.987507,464.8325 765.000007,469.76 765.000007,475 C765.000007,486.055 756.055007,495 745.000007,495 L745.000007,495 Z" id="Shape" opacity="0.0299999993" sketch:type="MSShapeGroup"></path>
                <path d="M655.000006,450 C641.187506,450 629.997506,461.1825 630.000006,475 C630.000006,488.815 641.180006,500 655.000006,500 C668.812506,500 680.000006,488.82 680.000006,475 C680.002506,461.1875 668.820006,450 655.000006,450 L655.000006,450 Z M635.000006,475 C635.000006,469.6575 637.080006,464.635 640.857506,460.8575 C644.635006,457.08 649.657506,455 655.000006,455 C660.242506,455 665.167506,457.0125 668.917506,460.655 L647.720006,467.72 L640.655006,488.92 C637.012506,485.1675 635.000006,480.24 635.000006,475 L635.000006,475 Z M651.672506,471.6725 L658.325006,478.33 L658.325006,478.33 L648.345006,481.6575 L651.672506,471.6725 L651.672506,471.6725 Z M655.000006,495 C649.760006,495 644.835006,492.9875 641.085006,489.3475 L662.280006,482.28 L669.345006,461.08 C672.987506,464.8325 675.000006,469.76 675.000006,475 C675.000006,486.055 666.055006,495 655.000006,495 L655.000006,495 Z" id="Shape" opacity="0.0299999993" sketch:type="MSShapeGroup"></path>
                <path d="M565.000005,450 C551.187505,450 539.997505,461.1825 540.000005,475 C540.000005,488.815 551.180005,500 565.000005,500 C578.812505,500 590.000005,488.82 590.000005,475 C590.002505,461.1875 578.820005,450 565.000005,450 L565.000005,450 Z M545.000005,475 C545.000005,469.6575 547.080005,464.635 550.857505,460.8575 C554.635005,457.08 559.657505,455 565.000005,455 C570.242505,455 575.167505,457.0125 578.917505,460.655 L557.720005,467.72 L550.655005,488.92 C547.012505,485.1675 545.000005,480.24 545.000005,475 L545.000005,475 Z M561.672505,471.6725 L568.325005,478.33 L568.325005,478.33 L558.345005,481.6575 L561.672505,471.6725 L561.672505,471.6725 Z M565.000005,495 C559.760005,495 554.835005,492.9875 551.085005,489.3475 L572.280005,482.28 L579.345005,461.08 C582.987505,464.8325 585.000005,469.76 585.000005,475 C585.000005,486.055 576.055005,495 565.000005,495 L565.000005,495 Z" id="Shape" opacity="0.0299999993" sketch:type="MSShapeGroup"></path>
                <path d="M475.000005,450 C461.187505,450 449.997505,461.1825 450.000005,475 C450.000005,488.815 461.180005,500 475.000005,500 C488.812505,500 500.000005,488.82 500.000005,475 C500.002505,461.1875 488.820005,450 475.000005,450 L475.000005,450 Z M455.000005,475 C455.000005,469.6575 457.080005,464.635 460.857505,460.8575 C464.635005,457.08 469.657505,455 475.000005,455 C480.242505,455 485.167505,457.0125 488.917505,460.655 L467.720005,467.72 L460.655005,488.92 C457.012505,485.1675 455.000005,480.24 455.000005,475 L455.000005,475 Z M471.672505,471.6725 L478.325005,478.33 L478.325005,478.33 L468.345005,481.6575 L471.672505,471.6725 L471.672505,471.6725 Z M475.000005,495 C469.760005,495 464.835005,492.9875 461.085005,489.3475 L482.280005,482.28 L489.345005,461.08 C492.987505,464.8325 495.000005,469.76 495.000005,475 C495.000005,486.055 486.055005,495 475.000005,495 L475.000005,495 Z" id="Shape" opacity="0.0299999993" sketch:type="MSShapeGroup"></path>
                <path d="M385.000004,450 C371.187504,450 359.997504,461.1825 360.000004,475 C360.000004,488.815 371.180004,500 385.000004,500 C398.812504,500 410.000004,488.82 410.000004,475 C410.002504,461.1875 398.820004,450 385.000004,450 L385.000004,450 Z M365.000004,475 C365.000004,469.6575 367.080004,464.635 370.857504,460.8575 C374.635004,457.08 379.657504,455 385.000004,455 C390.242504,455 395.167504,457.0125 398.917504,460.655 L377.720004,467.72 L370.655004,488.92 C367.012504,485.1675 365.000004,480.24 365.000004,475 L365.000004,475 Z M381.672504,471.6725 L388.325004,478.33 L388.325004,478.33 L378.345004,481.6575 L381.672504,471.6725 L381.672504,471.6725 Z M385.000004,495 C379.760004,495 374.835004,492.9875 371.085004,489.3475 L392.280004,482.28 L399.345004,461.08 C402.987504,464.8325 405.000004,469.76 405.000004,475 C405.000004,486.055 396.055004,495 385.000004,495 L385.000004,495 Z" id="Shape" opacity="0.0299999993" sketch:type="MSShapeGroup"></path>
                <path d="M295.000003,450 C281.187503,450 269.997503,461.1825 270.000003,475 C270.000003,488.815 281.180003,500 295.000003,500 C308.812503,500 320.000003,488.82 320.000003,475 C320.002503,461.1875 308.820003,450 295.000003,450 L295.000003,450 Z M275.000003,475 C275.000003,469.6575 277.080003,464.635 280.857503,460.8575 C284.635003,457.08 289.657503,455 295.000003,455 C300.242503,455 305.167503,457.0125 308.917503,460.655 L287.720003,467.72 L280.655003,488.92 C277.012503,485.1675 275.000003,480.24 275.000003,475 L275.000003,475 Z M291.672503,471.6725 L298.325003,478.33 L298.325003,478.33 L288.345003,481.6575 L291.672503,471.6725 L291.672503,471.6725 Z M295.000003,495 C289.760003,495 284.835003,492.9875 281.085003,489.3475 L302.280003,482.28 L309.345003,461.08 C312.987503,464.8325 315.000003,469.76 315.000003,475 C315.000003,486.055 306.055003,495 295.000003,495 L295.000003,495 Z" id="Shape" opacity="0.0299999993" sketch:type="MSShapeGroup"></path>
                <path d="M205.000002,450 C191.187502,450 179.997502,461.1825 180.000002,475 C180.000002,488.815 191.180002,500 205.000002,500 C218.812502,500 230.000002,488.82 230.000002,475 C230.002502,461.1875 218.820002,450 205.000002,450 L205.000002,450 Z M185.000002,475 C185.000002,469.6575 187.080002,464.635 190.857502,460.8575 C194.635002,457.08 199.657502,455 205.000002,455 C210.242502,455 215.167502,457.0125 218.917502,460.655 L197.720002,467.72 L190.655002,488.92 C187.012502,485.1675 185.000002,480.24 185.000002,475 L185.000002,475 Z M201.672502,471.6725 L208.325002,478.33 L208.325002,478.33 L198.345002,481.6575 L201.672502,471.6725 L201.672502,471.6725 Z M205.000002,495 C199.760002,495 194.835002,492.9875 191.085002,489.3475 L212.280002,482.28 L219.345002,461.08 C222.987502,464.8325 225.000002,469.76 225.000002,475 C225.000002,486.055 216.055002,495 205.000002,495 L205.000002,495 Z" id="Shape" opacity="0.0299999993" sketch:type="MSShapeGroup"></path>
                <path d="M115.000001,450 C101.187501,450 89.9975013,461.1825 90.0000013,475 C90.0000013,488.815 101.180001,500 115.000001,500 C128.812501,500 140.000001,488.82 140.000001,475 C140.002501,461.1875 128.820001,450 115.000001,450 L115.000001,450 Z M95.0000013,475 C95.0000013,469.6575 97.0800013,464.635 100.857501,460.8575 C104.635001,457.08 109.657501,455 115.000001,455 C120.242501,455 125.167501,457.0125 128.917501,460.655 L107.720001,467.72 L100.655001,488.92 C97.0125013,485.1675 95.0000013,480.24 95.0000013,475 L95.0000013,475 Z M111.672501,471.6725 L118.325001,478.33 L118.325001,478.33 L108.345001,481.6575 L111.672501,471.6725 L111.672501,471.6725 Z M115.000001,495 C109.760001,495 104.835001,492.9875 101.085001,489.3475 L122.280001,482.28 L129.345001,461.08 C132.987501,464.8325 135.000001,469.76 135.000001,475 C135.000001,486.055 126.055001,495 115.000001,495 L115.000001,495 Z" id="Shape" opacity="0.0299999993" sketch:type="MSShapeGroup"></path>
                <path d="M25.0000004,270 C11.1875004,270 -0.00249958118,281.1825 4.18819179e-07,295 C4.18819179e-07,308.815 11.1800004,320 25.0000004,320 C38.8125004,320 50.0000004,308.82 50.0000004,295 C50.0025004,281.1875 38.8200004,270 25.0000004,270 L25.0000004,270 Z M5.00000042,295 C5.00000042,289.6575 7.08000042,284.635 10.8575004,280.8575 C14.6350004,277.08 19.6575004,275 25.0000004,275 C30.2425004,275 35.1675004,277.0125 38.9175004,280.655 L17.7200004,287.72 L10.6550004,308.92 C7.01250042,305.1675 5.00000042,300.24 5.00000042,295 L5.00000042,295 Z M21.6725004,291.6725 L28.3250004,298.33 L28.3250004,298.33 L18.3450004,301.6575 L21.6725004,291.6725 L21.6725004,291.6725 Z M25.0000004,315 C19.7600004,315 14.8350004,312.9875 11.0850004,309.3475 L32.2800004,302.28 L39.3450004,281.08 C42.9875004,284.8325 45.0000004,289.76 45.0000004,295 C45.0000004,306.055 36.0550004,315 25.0000004,315 L25.0000004,315 Z" id="Shape" opacity="0.0299999993" sketch:type="MSShapeGroup"></path>
                <path d="M835.000008,270 C821.187508,270 809.997508,281.1825 810.000008,295 C810.000008,308.815 821.180008,320 835.000008,320 C848.812508,320 860.000008,308.82 860.000008,295 C860.002508,281.1875 848.820008,270 835.000008,270 L835.000008,270 Z M815.000008,295 C815.000008,289.6575 817.080008,284.635 820.857508,280.8575 C824.635008,277.08 829.657508,275 835.000008,275 C840.242508,275 845.167508,277.0125 848.917508,280.655 L827.720008,287.72 L820.655008,308.92 C817.012508,305.1675 815.000008,300.24 815.000008,295 L815.000008,295 Z M831.672508,291.6725 L838.325008,298.33 L838.325008,298.33 L828.345008,301.6575 L831.672508,291.6725 L831.672508,291.6725 Z M835.000008,315 C829.760008,315 824.835008,312.9875 821.085008,309.3475 L842.280008,302.28 L849.345008,281.08 C852.987508,284.8325 855.000008,289.76 855.000008,295 C855.000008,306.055 846.055008,315 835.000008,315 L835.000008,315 Z" id="Shape" opacity="0.0299999993" sketch:type="MSShapeGroup"></path>
                <path d="M1016,270 C1002.1875,270 990.997505,281.1825 991.000005,295 C991.000005,308.815 1002.18,320 1016,320 C1029.8125,320 1041,308.82 1041,295 C1041.0025,281.1875 1029.82,270 1016,270 L1016,270 Z M996.000005,295 C996.000005,289.6575 998.080005,284.635 1001.8575,280.8575 C1005.635,277.08 1010.6575,275 1016,275 C1021.2425,275 1026.1675,277.0125 1029.9175,280.655 L1008.72,287.72 L1001.655,308.92 C998.012505,305.1675 996.000005,300.24 996.000005,295 L996.000005,295 Z M1012.6725,291.6725 L1019.325,298.33 L1019.325,298.33 L1009.345,301.6575 L1012.6725,291.6725 L1012.6725,291.6725 Z M1016,315 C1010.76,315 1005.835,312.9875 1002.085,309.3475 L1023.28,302.28 L1030.345,281.08 C1033.9875,284.8325 1036,289.76 1036,295 C1036,306.055 1027.055,315 1016,315 L1016,315 Z" id="Shape" opacity="0.0299999993" sketch:type="MSShapeGroup"></path>
                <path d="M1107,270 C1093.1875,270 1081.9975,281.1825 1082,295 C1082,308.815 1093.18,320 1107,320 C1120.8125,320 1132,308.82 1132,295 C1132.0025,281.1875 1120.82,270 1107,270 L1107,270 Z M1087,295 C1087,289.6575 1089.08,284.635 1092.8575,280.8575 C1096.635,277.08 1101.6575,275 1107,275 C1112.2425,275 1117.1675,277.0125 1120.9175,280.655 L1099.72,287.72 L1092.655,308.92 C1089.0125,305.1675 1087,300.24 1087,295 L1087,295 Z M1103.6725,291.6725 L1110.325,298.33 L1110.325,298.33 L1100.345,301.6575 L1103.6725,291.6725 L1103.6725,291.6725 Z M1107,315 C1101.76,315 1096.835,312.9875 1093.085,309.3475 L1114.28,302.28 L1121.345,281.08 C1124.9875,284.8325 1127,289.76 1127,295 C1127,306.055 1118.055,315 1107,315 L1107,315 Z" id="Shape" opacity="0.0299999993" sketch:type="MSShapeGroup"></path>
                <path d="M926.000004,270 C912.187504,270 900.997504,281.1825 901.000004,295 C901.000004,308.815 912.180004,320 926.000004,320 C939.812504,320 951.000004,308.82 951.000004,295 C951.002504,281.1875 939.820004,270 926.000004,270 L926.000004,270 Z M906.000004,295 C906.000004,289.6575 908.080004,284.635 911.857504,280.8575 C915.635004,277.08 920.657504,275 926.000004,275 C931.242504,275 936.167504,277.0125 939.917504,280.655 L918.720004,287.72 L911.655004,308.92 C908.012504,305.1675 906.000004,300.24 906.000004,295 L906.000004,295 Z M922.672504,291.6725 L929.325004,298.33 L929.325004,298.33 L919.345004,301.6575 L922.672504,291.6725 L922.672504,291.6725 Z M926.000004,315 C920.760004,315 915.835004,312.9875 912.085004,309.3475 L933.280004,302.28 L940.345004,281.08 C943.987504,284.8325 946.000004,289.76 946.000004,295 C946.000004,306.055 937.055004,315 926.000004,315 L926.000004,315 Z" id="Shape" opacity="0.0299999993" sketch:type="MSShapeGroup"></path>
                <path d="M745.000007,270 C731.187507,270 719.997507,281.1825 720.000007,295 C720.000007,308.815 731.180007,320 745.000007,320 C758.812507,320 770.000007,308.82 770.000007,295 C770.002507,281.1875 758.820007,270 745.000007,270 L745.000007,270 Z M725.000007,295 C725.000007,289.6575 727.080007,284.635 730.857507,280.8575 C734.635007,277.08 739.657507,275 745.000007,275 C750.242507,275 755.167507,277.0125 758.917507,280.655 L737.720007,287.72 L730.655007,308.92 C727.012507,305.1675 725.000007,300.24 725.000007,295 L725.000007,295 Z M741.672507,291.6725 L748.325007,298.33 L748.325007,298.33 L738.345007,301.6575 L741.672507,291.6725 L741.672507,291.6725 Z M745.000007,315 C739.760007,315 734.835007,312.9875 731.085007,309.3475 L752.280007,302.28 L759.345007,281.08 C762.987507,284.8325 765.000007,289.76 765.000007,295 C765.000007,306.055 756.055007,315 745.000007,315 L745.000007,315 Z" id="Shape" opacity="0.0299999993" sketch:type="MSShapeGroup"></path>
                <path d="M655.000006,270 C641.187506,270 629.997506,281.1825 630.000006,295 C630.000006,308.815 641.180006,320 655.000006,320 C668.812506,320 680.000006,308.82 680.000006,295 C680.002506,281.1875 668.820006,270 655.000006,270 L655.000006,270 Z M635.000006,295 C635.000006,289.6575 637.080006,284.635 640.857506,280.8575 C644.635006,277.08 649.657506,275 655.000006,275 C660.242506,275 665.167506,277.0125 668.917506,280.655 L647.720006,287.72 L640.655006,308.92 C637.012506,305.1675 635.000006,300.24 635.000006,295 L635.000006,295 Z M651.672506,291.6725 L658.325006,298.33 L658.325006,298.33 L648.345006,301.6575 L651.672506,291.6725 L651.672506,291.6725 Z M655.000006,315 C649.760006,315 644.835006,312.9875 641.085006,309.3475 L662.280006,302.28 L669.345006,281.08 C672.987506,284.8325 675.000006,289.76 675.000006,295 C675.000006,306.055 666.055006,315 655.000006,315 L655.000006,315 Z" id="Shape" opacity="0.0299999993" sketch:type="MSShapeGroup"></path>
                <path d="M565.000005,270 C551.187505,270 539.997505,281.1825 540.000005,295 C540.000005,308.815 551.180005,320 565.000005,320 C578.812505,320 590.000005,308.82 590.000005,295 C590.002505,281.1875 578.820005,270 565.000005,270 L565.000005,270 Z M545.000005,295 C545.000005,289.6575 547.080005,284.635 550.857505,280.8575 C554.635005,277.08 559.657505,275 565.000005,275 C570.242505,275 575.167505,277.0125 578.917505,280.655 L557.720005,287.72 L550.655005,308.92 C547.012505,305.1675 545.000005,300.24 545.000005,295 L545.000005,295 Z M561.672505,291.6725 L568.325005,298.33 L568.325005,298.33 L558.345005,301.6575 L561.672505,291.6725 L561.672505,291.6725 Z M565.000005,315 C559.760005,315 554.835005,312.9875 551.085005,309.3475 L572.280005,302.28 L579.345005,281.08 C582.987505,284.8325 585.000005,289.76 585.000005,295 C585.000005,306.055 576.055005,315 565.000005,315 L565.000005,315 Z" id="Shape" opacity="0.0299999993" sketch:type="MSShapeGroup"></path>
                <path d="M475.000005,270 C461.187505,270 449.997505,281.1825 450.000005,295 C450.000005,308.815 461.180005,320 475.000005,320 C488.812505,320 500.000005,308.82 500.000005,295 C500.002505,281.1875 488.820005,270 475.000005,270 L475.000005,270 Z M455.000005,295 C455.000005,289.6575 457.080005,284.635 460.857505,280.8575 C464.635005,277.08 469.657505,275 475.000005,275 C480.242505,275 485.167505,277.0125 488.917505,280.655 L467.720005,287.72 L460.655005,308.92 C457.012505,305.1675 455.000005,300.24 455.000005,295 L455.000005,295 Z M471.672505,291.6725 L478.325005,298.33 L478.325005,298.33 L468.345005,301.6575 L471.672505,291.6725 L471.672505,291.6725 Z M475.000005,315 C469.760005,315 464.835005,312.9875 461.085005,309.3475 L482.280005,302.28 L489.345005,281.08 C492.987505,284.8325 495.000005,289.76 495.000005,295 C495.000005,306.055 486.055005,315 475.000005,315 L475.000005,315 Z" id="Shape" opacity="0.0299999993" sketch:type="MSShapeGroup"></path>
                <path d="M385.000004,270 C371.187504,270 359.997504,281.1825 360.000004,295 C360.000004,308.815 371.180004,320 385.000004,320 C398.812504,320 410.000004,308.82 410.000004,295 C410.002504,281.1875 398.820004,270 385.000004,270 L385.000004,270 Z M365.000004,295 C365.000004,289.6575 367.080004,284.635 370.857504,280.8575 C374.635004,277.08 379.657504,275 385.000004,275 C390.242504,275 395.167504,277.0125 398.917504,280.655 L377.720004,287.72 L370.655004,308.92 C367.012504,305.1675 365.000004,300.24 365.000004,295 L365.000004,295 Z M381.672504,291.6725 L388.325004,298.33 L388.325004,298.33 L378.345004,301.6575 L381.672504,291.6725 L381.672504,291.6725 Z M385.000004,315 C379.760004,315 374.835004,312.9875 371.085004,309.3475 L392.280004,302.28 L399.345004,281.08 C402.987504,284.8325 405.000004,289.76 405.000004,295 C405.000004,306.055 396.055004,315 385.000004,315 L385.000004,315 Z" id="Shape" opacity="0.0299999993" sketch:type="MSShapeGroup"></path>
                <path d="M295.000003,270 C281.187503,270 269.997503,281.1825 270.000003,295 C270.000003,308.815 281.180003,320 295.000003,320 C308.812503,320 320.000003,308.82 320.000003,295 C320.002503,281.1875 308.820003,270 295.000003,270 L295.000003,270 Z M275.000003,295 C275.000003,289.6575 277.080003,284.635 280.857503,280.8575 C284.635003,277.08 289.657503,275 295.000003,275 C300.242503,275 305.167503,277.0125 308.917503,280.655 L287.720003,287.72 L280.655003,308.92 C277.012503,305.1675 275.000003,300.24 275.000003,295 L275.000003,295 Z M291.672503,291.6725 L298.325003,298.33 L298.325003,298.33 L288.345003,301.6575 L291.672503,291.6725 L291.672503,291.6725 Z M295.000003,315 C289.760003,315 284.835003,312.9875 281.085003,309.3475 L302.280003,302.28 L309.345003,281.08 C312.987503,284.8325 315.000003,289.76 315.000003,295 C315.000003,306.055 306.055003,315 295.000003,315 L295.000003,315 Z" id="Shape" opacity="0.0299999993" sketch:type="MSShapeGroup"></path>
                <path d="M205.000002,270 C191.187502,270 179.997502,281.1825 180.000002,295 C180.000002,308.815 191.180002,320 205.000002,320 C218.812502,320 230.000002,308.82 230.000002,295 C230.002502,281.1875 218.820002,270 205.000002,270 L205.000002,270 Z M185.000002,295 C185.000002,289.6575 187.080002,284.635 190.857502,280.8575 C194.635002,277.08 199.657502,275 205.000002,275 C210.242502,275 215.167502,277.0125 218.917502,280.655 L197.720002,287.72 L190.655002,308.92 C187.012502,305.1675 185.000002,300.24 185.000002,295 L185.000002,295 Z M201.672502,291.6725 L208.325002,298.33 L208.325002,298.33 L198.345002,301.6575 L201.672502,291.6725 L201.672502,291.6725 Z M205.000002,315 C199.760002,315 194.835002,312.9875 191.085002,309.3475 L212.280002,302.28 L219.345002,281.08 C222.987502,284.8325 225.000002,289.76 225.000002,295 C225.000002,306.055 216.055002,315 205.000002,315 L205.000002,315 Z" id="Shape" opacity="0.0299999993" sketch:type="MSShapeGroup"></path>
                <path d="M25.0000004,90 C11.1875004,90 -0.00249958118,101.1825 4.18819179e-07,115 C4.18819179e-07,128.815 11.1800004,140 25.0000004,140 C38.8125004,140 50.0000004,128.82 50.0000004,115 C50.0025004,101.1875 38.8200004,90 25.0000004,90 L25.0000004,90 Z M5.00000042,115 C5.00000042,109.6575 7.08000042,104.635 10.8575004,100.8575 C14.6350004,97.08 19.6575004,95 25.0000004,95 C30.2425004,95 35.1675004,97.0125 38.9175004,100.655 L17.7200004,107.72 L10.6550004,128.92 C7.01250042,125.1675 5.00000042,120.24 5.00000042,115 L5.00000042,115 Z M21.6725004,111.6725 L28.3250004,118.33 L28.3250004,118.33 L18.3450004,121.6575 L21.6725004,111.6725 L21.6725004,111.6725 Z M25.0000004,135 C19.7600004,135 14.8350004,132.9875 11.0850004,129.3475 L32.2800004,122.28 L39.3450004,101.08 C42.9875004,104.8325 45.0000004,109.76 45.0000004,115 C45.0000004,126.055 36.0550004,135 25.0000004,135 L25.0000004,135 Z" id="Shape" opacity="0.0299999993" sketch:type="MSShapeGroup"></path>
                <path d="M835.000008,90 C821.187508,90 809.997508,101.1825 810.000008,115 C810.000008,128.815 821.180008,140 835.000008,140 C848.812508,140 860.000008,128.82 860.000008,115 C860.002508,101.1875 848.820008,90 835.000008,90 L835.000008,90 Z M815.000008,115 C815.000008,109.6575 817.080008,104.635 820.857508,100.8575 C824.635008,97.08 829.657508,95 835.000008,95 C840.242508,95 845.167508,97.0125 848.917508,100.655 L827.720008,107.72 L820.655008,128.92 C817.012508,125.1675 815.000008,120.24 815.000008,115 L815.000008,115 Z M831.672508,111.6725 L838.325008,118.33 L838.325008,118.33 L828.345008,121.6575 L831.672508,111.6725 L831.672508,111.6725 Z M835.000008,135 C829.760008,135 824.835008,132.9875 821.085008,129.3475 L842.280008,122.28 L849.345008,101.08 C852.987508,104.8325 855.000008,109.76 855.000008,115 C855.000008,126.055 846.055008,135 835.000008,135 L835.000008,135 Z" id="Shape" opacity="0.0299999993" sketch:type="MSShapeGroup"></path>
                <path d="M1016,90 C1002.1875,90 990.997505,101.1825 991.000005,115 C991.000005,128.815 1002.18,140 1016,140 C1029.8125,140 1041,128.82 1041,115 C1041.0025,101.1875 1029.82,90 1016,90 L1016,90 Z M996.000005,115 C996.000005,109.6575 998.080005,104.635 1001.8575,100.8575 C1005.635,97.08 1010.6575,95 1016,95 C1021.2425,95 1026.1675,97.0125 1029.9175,100.655 L1008.72,107.72 L1001.655,128.92 C998.012505,125.1675 996.000005,120.24 996.000005,115 L996.000005,115 Z M1012.6725,111.6725 L1019.325,118.33 L1019.325,118.33 L1009.345,121.6575 L1012.6725,111.6725 L1012.6725,111.6725 Z M1016,135 C1010.76,135 1005.835,132.9875 1002.085,129.3475 L1023.28,122.28 L1030.345,101.08 C1033.9875,104.8325 1036,109.76 1036,115 C1036,126.055 1027.055,135 1016,135 L1016,135 Z" id="Shape" opacity="0.0299999993" sketch:type="MSShapeGroup"></path>
                <path d="M1107,90 C1093.1875,90 1081.9975,101.1825 1082,115 C1082,128.815 1093.18,140 1107,140 C1120.8125,140 1132,128.82 1132,115 C1132.0025,101.1875 1120.82,90 1107,90 L1107,90 Z M1087,115 C1087,109.6575 1089.08,104.635 1092.8575,100.8575 C1096.635,97.08 1101.6575,95 1107,95 C1112.2425,95 1117.1675,97.0125 1120.9175,100.655 L1099.72,107.72 L1092.655,128.92 C1089.0125,125.1675 1087,120.24 1087,115 L1087,115 Z M1103.6725,111.6725 L1110.325,118.33 L1110.325,118.33 L1100.345,121.6575 L1103.6725,111.6725 L1103.6725,111.6725 Z M1107,135 C1101.76,135 1096.835,132.9875 1093.085,129.3475 L1114.28,122.28 L1121.345,101.08 C1124.9875,104.8325 1127,109.76 1127,115 C1127,126.055 1118.055,135 1107,135 L1107,135 Z" id="Shape" opacity="0.0299999993" sketch:type="MSShapeGroup"></path>
                <path d="M926.000004,90 C912.187504,90 900.997504,101.1825 901.000004,115 C901.000004,128.815 912.180004,140 926.000004,140 C939.812504,140 951.000004,128.82 951.000004,115 C951.002504,101.1875 939.820004,90 926.000004,90 L926.000004,90 Z M906.000004,115 C906.000004,109.6575 908.080004,104.635 911.857504,100.8575 C915.635004,97.08 920.657504,95 926.000004,95 C931.242504,95 936.167504,97.0125 939.917504,100.655 L918.720004,107.72 L911.655004,128.92 C908.012504,125.1675 906.000004,120.24 906.000004,115 L906.000004,115 Z M922.672504,111.6725 L929.325004,118.33 L929.325004,118.33 L919.345004,121.6575 L922.672504,111.6725 L922.672504,111.6725 Z M926.000004,135 C920.760004,135 915.835004,132.9875 912.085004,129.3475 L933.280004,122.28 L940.345004,101.08 C943.987504,104.8325 946.000004,109.76 946.000004,115 C946.000004,126.055 937.055004,135 926.000004,135 L926.000004,135 Z" id="Shape" opacity="0.0299999993" sketch:type="MSShapeGroup"></path>
                <path d="M745.000007,90 C731.187507,90 719.997507,101.1825 720.000007,115 C720.000007,128.815 731.180007,140 745.000007,140 C758.812507,140 770.000007,128.82 770.000007,115 C770.002507,101.1875 758.820007,90 745.000007,90 L745.000007,90 Z M725.000007,115 C725.000007,109.6575 727.080007,104.635 730.857507,100.8575 C734.635007,97.08 739.657507,95 745.000007,95 C750.242507,95 755.167507,97.0125 758.917507,100.655 L737.720007,107.72 L730.655007,128.92 C727.012507,125.1675 725.000007,120.24 725.000007,115 L725.000007,115 Z M741.672507,111.6725 L748.325007,118.33 L748.325007,118.33 L738.345007,121.6575 L741.672507,111.6725 L741.672507,111.6725 Z M745.000007,135 C739.760007,135 734.835007,132.9875 731.085007,129.3475 L752.280007,122.28 L759.345007,101.08 C762.987507,104.8325 765.000007,109.76 765.000007,115 C765.000007,126.055 756.055007,135 745.000007,135 L745.000007,135 Z" id="Shape" opacity="0.0299999993" sketch:type="MSShapeGroup"></path>
                <path d="M655.000006,90 C641.187506,90 629.997506,101.1825 630.000006,115 C630.000006,128.815 641.180006,140 655.000006,140 C668.812506,140 680.000006,128.82 680.000006,115 C680.002506,101.1875 668.820006,90 655.000006,90 L655.000006,90 Z M635.000006,115 C635.000006,109.6575 637.080006,104.635 640.857506,100.8575 C644.635006,97.08 649.657506,95 655.000006,95 C660.242506,95 665.167506,97.0125 668.917506,100.655 L647.720006,107.72 L640.655006,128.92 C637.012506,125.1675 635.000006,120.24 635.000006,115 L635.000006,115 Z M651.672506,111.6725 L658.325006,118.33 L658.325006,118.33 L648.345006,121.6575 L651.672506,111.6725 L651.672506,111.6725 Z M655.000006,135 C649.760006,135 644.835006,132.9875 641.085006,129.3475 L662.280006,122.28 L669.345006,101.08 C672.987506,104.8325 675.000006,109.76 675.000006,115 C675.000006,126.055 666.055006,135 655.000006,135 L655.000006,135 Z" id="Shape" opacity="0.0299999993" sketch:type="MSShapeGroup"></path>
                <path d="M565.000005,90 C551.187505,90 539.997505,101.1825 540.000005,115 C540.000005,128.815 551.180005,140 565.000005,140 C578.812505,140 590.000005,128.82 590.000005,115 C590.002505,101.1875 578.820005,90 565.000005,90 L565.000005,90 Z M545.000005,115 C545.000005,109.6575 547.080005,104.635 550.857505,100.8575 C554.635005,97.08 559.657505,95 565.000005,95 C570.242505,95 575.167505,97.0125 578.917505,100.655 L557.720005,107.72 L550.655005,128.92 C547.012505,125.1675 545.000005,120.24 545.000005,115 L545.000005,115 Z M561.672505,111.6725 L568.325005,118.33 L568.325005,118.33 L558.345005,121.6575 L561.672505,111.6725 L561.672505,111.6725 Z M565.000005,135 C559.760005,135 554.835005,132.9875 551.085005,129.3475 L572.280005,122.28 L579.345005,101.08 C582.987505,104.8325 585.000005,109.76 585.000005,115 C585.000005,126.055 576.055005,135 565.000005,135 L565.000005,135 Z" id="Shape" opacity="0.0299999993" sketch:type="MSShapeGroup"></path>
                <path d="M385.000004,90 C371.187504,90 359.997504,101.1825 360.000004,115 C360.000004,128.815 371.180004,140 385.000004,140 C398.812504,140 410.000004,128.82 410.000004,115 C410.002504,101.1875 398.820004,90 385.000004,90 L385.000004,90 Z M365.000004,115 C365.000004,109.6575 367.080004,104.635 370.857504,100.8575 C374.635004,97.08 379.657504,95 385.000004,95 C390.242504,95 395.167504,97.0125 398.917504,100.655 L377.720004,107.72 L370.655004,128.92 C367.012504,125.1675 365.000004,120.24 365.000004,115 L365.000004,115 Z M381.672504,111.6725 L388.325004,118.33 L388.325004,118.33 L378.345004,121.6575 L381.672504,111.6725 L381.672504,111.6725 Z M385.000004,135 C379.760004,135 374.835004,132.9875 371.085004,129.3475 L392.280004,122.28 L399.345004,101.08 C402.987504,104.8325 405.000004,109.76 405.000004,115 C405.000004,126.055 396.055004,135 385.000004,135 L385.000004,135 Z" id="Shape" opacity="0.0299999993" sketch:type="MSShapeGroup"></path>
                <path d="M295.000003,90 C281.187503,90 269.997503,101.1825 270.000003,115 C270.000003,128.815 281.180003,140 295.000003,140 C308.812503,140 320.000003,128.82 320.000003,115 C320.002503,101.1875 308.820003,90 295.000003,90 L295.000003,90 Z M275.000003,115 C275.000003,109.6575 277.080003,104.635 280.857503,100.8575 C284.635003,97.08 289.657503,95 295.000003,95 C300.242503,95 305.167503,97.0125 308.917503,100.655 L287.720003,107.72 L280.655003,128.92 C277.012503,125.1675 275.000003,120.24 275.000003,115 L275.000003,115 Z M291.672503,111.6725 L298.325003,118.33 L298.325003,118.33 L288.345003,121.6575 L291.672503,111.6725 L291.672503,111.6725 Z M295.000003,135 C289.760003,135 284.835003,132.9875 281.085003,129.3475 L302.280003,122.28 L309.345003,101.08 C312.987503,104.8325 315.000003,109.76 315.000003,115 C315.000003,126.055 306.055003,135 295.000003,135 L295.000003,135 Z" id="Shape" opacity="0.0299999993" sketch:type="MSShapeGroup"></path>
                <path d="M205.000002,90 C191.187502,90 179.997502,101.1825 180.000002,115 C180.000002,128.815 191.180002,140 205.000002,140 C218.812502,140 230.000002,128.82 230.000002,115 C230.002502,101.1875 218.820002,90 205.000002,90 L205.000002,90 Z M185.000002,115 C185.000002,109.6575 187.080002,104.635 190.857502,100.8575 C194.635002,97.08 199.657502,95 205.000002,95 C210.242502,95 215.167502,97.0125 218.917502,100.655 L197.720002,107.72 L190.655002,128.92 C187.012502,125.1675 185.000002,120.24 185.000002,115 L185.000002,115 Z M201.672502,111.6725 L208.325002,118.33 L208.325002,118.33 L198.345002,121.6575 L201.672502,111.6725 L201.672502,111.6725 Z M205.000002,135 C199.760002,135 194.835002,132.9875 191.085002,129.3475 L212.280002,122.28 L219.345002,101.08 C222.987502,104.8325 225.000002,109.76 225.000002,115 C225.000002,126.055 216.055002,135 205.000002,135 L205.000002,135 Z" id="Shape" opacity="0.0299999993" sketch:type="MSShapeGroup"></path>
                <path d="M115.000001,90 C101.187501,90 89.9975013,101.1825 90.0000013,115 C90.0000013,128.815 101.180001,140 115.000001,140 C128.812501,140 140.000001,128.82 140.000001,115 C140.002501,101.1875 128.820001,90 115.000001,90 L115.000001,90 Z M95.0000013,115 C95.0000013,109.6575 97.0800013,104.635 100.857501,100.8575 C104.635001,97.08 109.657501,95 115.000001,95 C120.242501,95 125.167501,97.0125 128.917501,100.655 L107.720001,107.72 L100.655001,128.92 C97.0125013,125.1675 95.0000013,120.24 95.0000013,115 L95.0000013,115 Z M111.672501,111.6725 L118.325001,118.33 L118.325001,118.33 L108.345001,121.6575 L111.672501,111.6725 L111.672501,111.6725 Z M115.000001,135 C109.760001,135 104.835001,132.9875 101.085001,129.3475 L122.280001,122.28 L129.345001,101.08 C132.987501,104.8325 135.000001,109.76 135.000001,115 C135.000001,126.055 126.055001,135 115.000001,135 L115.000001,135 Z" id="Shape" opacity="0.0299999993" sketch:type="MSShapeGroup"></path>
            </g>
        </g>
    </g>
</svg>