<?xml version="1.0" encoding="UTF-8" standalone="no"?>
<svg width="38px" height="38px" viewBox="0 0 38 38" version="1.1" xmlns="http://www.w3.org/2000/svg" xmlns:xlink="http://www.w3.org/1999/xlink" xmlns:sketch="http://www.bohemiancoding.com/sketch/ns">
    <!-- Generator: sketchtool 3.5.1 (25234) - http://www.bohemiancoding.com/sketch -->
    <title>564F09C0-EA87-490A-9894-C4A15D259BB4</title>
    <desc>Created with sketchtool.</desc>
    <defs></defs>
    <g id="Page-1" stroke="none" stroke-width="1" fill="none" fill-rule="evenodd" sketch:type="MSPage">
        <g id="lifeslicewebbie" sketch:type="MSArtboardGroup" transform="translate(-1025.000000, -40.000000)">
            <g id="icon-facebook" sketch:type="MSLayerGroup" transform="translate(1025.000000, 40.000000)">
                <rect id="Rectangle-8" fill="#3B5998" sketch:type="MSShapeGroup" x="0" y="0" width="38" height="38" rx="5"></rect>
                <g id="facebook-2" transform="translate(12.000000, 7.000000)" fill="#FFFFFF" sketch:type="MSShapeGroup">
                    <g id="Layer_1">
                        <path d="M10,4 L13,4 C13.276,4 13.5,3.776 13.5,3.5 L13.5,0.5 C13.5,0.224 13.276,0 13,0 L10,0 C6.968,0 4.5,2.467 4.5,5.5 L4.5,9 L1,9 C0.724,9 0.5,9.224 0.5,9.5 L0.5,12.5 C0.5,12.776 0.724,13 1,13 L4.5,13 L4.5,23.5 C4.5,23.776 4.724,24 5,24 L8,24 C8.276,24 8.5,23.776 8.5,23.5 L8.5,13 L12,13 C12.215,13 12.406,12.862 12.475,12.658 L13.475,9.658 C13.526,9.506 13.5,9.338 13.406,9.207 C13.311,9.077 13.161,9 13,9 L8.5,9 L8.5,5.5 C8.5,4.673 9.173,4 10,4 L10,4 Z" id="Shape"></path>
                    </g>
                </g>
            </g>
        </g>
    </g>
</svg>