<?xml version="1.0" encoding="UTF-8" standalone="no"?>
<svg width="60px" height="60px" viewBox="0 0 60 60" version="1.1" xmlns="http://www.w3.org/2000/svg" xmlns:xlink="http://www.w3.org/1999/xlink" xmlns:sketch="http://www.bohemiancoding.com/sketch/ns">
    <!-- Generator: sketchtool 3.5.1 (25234) - http://www.bohemiancoding.com/sketch -->
    <title>486C29B3-E1D9-4792-B9B4-39A14827EFC0</title>
    <desc>Created with sketchtool.</desc>
    <defs></defs>
    <g id="Page-1" stroke="none" stroke-width="1" fill="none" fill-rule="evenodd" sketch:type="MSPage">
        <g id="lifeslicewebbie" sketch:type="MSArtboardGroup" transform="translate(-365.000000, -1148.000000)">
            <g id="icon-playlist" sketch:type="MSLayerGroup" transform="translate(365.000000, 1148.000000)">
                <circle id="Oval-1" fill="#6CB2D8" sketch:type="MSShapeGroup" cx="30" cy="30" r="30"></circle>
                <g id="list-bullets-3" transform="translate(18.000000, 18.000000)" sketch:type="MSShapeGroup">
                    <g id="Group">
                        <g id="Frame_-_24px">
                            <rect id="Rectangle-path" x="0" y="0" width="24" height="24"></rect>
                        </g>
                        <g id="Line_Icons" transform="translate(2.000000, 2.000000)" fill="#FFFFFF">
                            <g id="Group">
                                <path d="M3,0 C1.346,0 0,1.345 0,3 C0,4.655 1.346,6 3,6 C4.654,6 6,4.654 6,3 C6,1.346 4.654,0 3,0 L3,0 Z M3,4 C2.449,4 2,3.551 2,3 C2,2.449 2.449,2 3,2 C3.552,2 4,2.449 4,3 C4,3.551 3.552,4 3,4 L3,4 Z" id="Shape"></path>
                                <path d="M3,7 C1.346,7 0,8.346 0,10 C0,11.654 1.346,13 3,13 C4.654,13 6,11.654 6,10 C6,8.346 4.654,7 3,7 L3,7 Z M3,11 C2.449,11 2,10.551 2,10 C2,9.449 2.449,9 3,9 C3.552,9 4,9.449 4,10 C4,10.551 3.552,11 3,11 L3,11 Z" id="Shape"></path>
                                <path d="M3,14 C1.346,14 0,15.346 0,17 C0,18.654 1.346,20 3,20 C4.654,20 6,18.654 6,17 C6,15.346 4.654,14 3,14 L3,14 Z M3,18 C2.449,18 2,17.551 2,17 C2,16.449 2.449,16 3,16 C3.552,16 4,16.449 4,17 C4,17.551 3.552,18 3,18 L3,18 Z" id="Shape"></path>
                                <rect id="Rectangle-path" x="8" y="2" width="12" height="2"></rect>
                                <rect id="Rectangle-path" x="8" y="9" width="12" height="2"></rect>
                                <rect id="Rectangle-path" x="8" y="16" width="12" height="2"></rect>
                            </g>
                        </g>
                    </g>
                </g>
            </g>
        </g>
    </g>
</svg>