<?xml version="1.0" encoding="UTF-8" standalone="no"?>
<svg width="60px" height="60px" viewBox="0 0 60 60" version="1.1" xmlns="http://www.w3.org/2000/svg" xmlns:xlink="http://www.w3.org/1999/xlink" xmlns:sketch="http://www.bohemiancoding.com/sketch/ns">
    <!-- Generator: sketchtool 3.5.1 (25234) - http://www.bohemiancoding.com/sketch -->
    <title>08B51E95-6696-4F80-847D-087AFC2CA964</title>
    <desc>Created with sketchtool.</desc>
    <defs></defs>
    <g id="Page-1" stroke="none" stroke-width="1" fill="none" fill-rule="evenodd" sketch:type="MSPage">
        <g id="lifeslicewebbie" sketch:type="MSArtboardGroup" transform="translate(-765.000000, -1308.000000)">
            <g id="icon-friends" sketch:type="MSLayerGroup" transform="translate(765.000000, 1308.000000)">
                <circle id="Oval-1-Copy-4" fill="#6CB2D8" sketch:type="MSShapeGroup" cx="30" cy="30" r="30"></circle>
                <g id="user-group" transform="translate(18.000000, 18.000000)" sketch:type="MSShapeGroup">
                    <g id="Group">
                        <g id="Frame_-_24px">
                            <rect id="Rectangle-path" x="0" y="0" width="24" height="24"></rect>
                        </g>
                        <g id="Line_Icons" transform="translate(1.000000, 2.000000)" fill="#FFFFFF">
                            <g id="Group">
                                <path d="M19.372,17.059 C20.062,16.418 20.501,15.513 20.501,14.5 C20.501,12.57 18.931,11 17.001,11 C15.071,11 13.501,12.57 13.501,14.5 C13.501,15.513 13.94,16.418 14.63,17.059 C13.152,17.593 12.001,18.621 12.001,20 L14.001,20 C14.001,19.402 15.414,18.643 17.001,18.643 C18.588,18.643 20.001,19.403 20.001,20 L22.001,20 C22.001,18.62 20.85,17.593 19.372,17.059 L19.372,17.059 Z M17.001,13 C17.828,13 18.501,13.673 18.501,14.5 C18.501,15.327 17.828,16 17.001,16 C16.174,16 15.501,15.327 15.501,14.5 C15.501,13.673 16.174,13 17.001,13 L17.001,13 Z" id="Shape"></path>
                                <path d="M7.372,17.059 C8.062,16.418 8.501,15.513 8.501,14.5 C8.501,12.57 6.931,11 5.001,11 C3.071,11 1.501,12.57 1.501,14.5 C1.501,15.513 1.94,16.418 2.63,17.059 C1.152,17.593 0.001,18.62 0.001,20 L2.001,20 C2.001,19.402 3.414,18.643 5.001,18.643 C6.588,18.643 8.001,19.403 8.001,20 L10.001,20 C10.001,18.62 8.85,17.593 7.372,17.059 L7.372,17.059 Z M5.001,13 C5.828,13 6.501,13.673 6.501,14.5 C6.501,15.327 5.828,16 5.001,16 C4.174,16 3.501,15.327 3.501,14.5 C3.501,13.673 4.174,13 5.001,13 L5.001,13 Z" id="Shape"></path>
                                <path d="M14.001,9 L16.001,9 C16.001,7.62 14.85,6.593 13.372,6.059 C14.062,5.418 14.501,4.513 14.501,3.5 C14.501,1.57 12.931,0 11.001,0 C9.071,0 7.501,1.57 7.501,3.5 C7.501,4.513 7.94,5.418 8.63,6.059 C7.152,6.593 6.001,7.62 6.001,9 L8.001,9 C8.001,8.402 9.414,7.643 11.001,7.643 C12.588,7.643 14.001,8.402 14.001,9 L14.001,9 Z M11.001,2 C11.828,2 12.501,2.673 12.501,3.5 C12.501,4.327 11.828,5 11.001,5 C10.174,5 9.501,4.327 9.501,3.5 C9.501,2.673 10.174,2 11.001,2 L11.001,2 Z" id="Shape"></path>
                            </g>
                        </g>
                    </g>
                </g>
            </g>
        </g>
    </g>
</svg>