<?xml version="1.0" encoding="UTF-8" standalone="no"?>
<svg width="60px" height="60px" viewBox="0 0 60 60" version="1.1" xmlns="http://www.w3.org/2000/svg" xmlns:xlink="http://www.w3.org/1999/xlink" xmlns:sketch="http://www.bohemiancoding.com/sketch/ns">
    <!-- Generator: sketchtool 3.5.1 (25234) - http://www.bohemiancoding.com/sketch -->
    <title>089CB0D7-0BF0-430D-A877-429015BE97CC</title>
    <desc>Created with sketchtool.</desc>
    <defs></defs>
    <g id="Page-1" stroke="none" stroke-width="1" fill="none" fill-rule="evenodd" sketch:type="MSPage">
        <g id="lifeslicewebbie" sketch:type="MSArtboardGroup" transform="translate(-365.000000, -1468.000000)">
            <g id="icon-discover" sketch:type="MSLayerGroup" transform="translate(365.000000, 1468.000000)">
                <circle id="Oval-1-Copy-2" fill="#6CB2D8" sketch:type="MSShapeGroup" cx="30" cy="30" r="30"></circle>
                <g id="compass-3" transform="translate(18.000000, 18.000000)" sketch:type="MSShapeGroup">
                    <g id="Group">
                        <g id="Frame_-_24px">
                            <rect id="Rectangle-path" x="0.001" y="0.001" width="24" height="24.001"></rect>
                        </g>
                        <g id="Line_Icons" transform="translate(2.000000, 2.000000)" fill="#FFFFFF">
                            <path d="M10,0 C4.475,0 -0.001,4.473 -1.77635684e-15,10 C-1.77635684e-15,15.526 4.472,20 10,20 C15.525,20 20,15.528 20,10 C20.001,4.475 15.528,0 10,0 L10,0 Z M2,10 C2,7.863 2.832,5.854 4.343,4.343 C5.854,2.832 7.863,2 10,2 C12.097,2 14.067,2.805 15.567,4.262 L7.088,7.088 L4.262,15.568 C2.805,14.067 2,12.096 2,10 L2,10 Z M8.669,8.669 L11.33,11.332 L11.33,11.332 L7.338,12.663 L8.669,8.669 L8.669,8.669 Z M10,18 C7.904,18 5.934,17.195 4.434,15.739 L12.912,12.912 L15.738,4.432 C17.195,5.933 18,7.904 18,10 C18,14.422 14.422,18 10,18 L10,18 Z" id="Shape"></path>
                        </g>
                    </g>
                </g>
            </g>
        </g>
    </g>
</svg>