<?xml version="1.0" encoding="UTF-8" standalone="no"?>
<svg width="38px" height="38px" viewBox="0 0 38 38" version="1.1" xmlns="http://www.w3.org/2000/svg" xmlns:xlink="http://www.w3.org/1999/xlink" xmlns:sketch="http://www.bohemiancoding.com/sketch/ns">
    <!-- Generator: sketchtool 3.5.1 (25234) - http://www.bohemiancoding.com/sketch -->
    <title>83C5E612-221B-433C-AA17-67B54C42A9F4</title>
    <desc>Created with sketchtool.</desc>
    <defs></defs>
    <g id="Page-1" stroke="none" stroke-width="1" fill="none" fill-rule="evenodd" sketch:type="MSPage">
        <g id="lifeslicewebbie" sketch:type="MSArtboardGroup" transform="translate(-978.000000, -40.000000)">
            <g id="icon-twitter" sketch:type="MSLayerGroup" transform="translate(978.000000, 40.000000)">
                <rect id="Rectangle-8" fill="#55ACEE" sketch:type="MSShapeGroup" x="0" y="0" width="38" height="38" rx="5"></rect>
                <g id="twitter-1" transform="translate(7.000000, 9.000000)" fill="#FFFFFF" sketch:type="MSShapeGroup">
                    <g id="Layer_1">
                        <path d="M23.369,2.855 C23.217,2.688 22.972,2.646 22.771,2.749 C22.646,2.813 22.411,2.897 22.132,2.98 C22.484,2.512 22.767,1.988 22.892,1.517 C22.946,1.314 22.867,1.1 22.695,0.979 C22.523,0.859 22.294,0.859 22.122,0.979 C21.851,1.168 20.543,1.736 19.716,1.92 C17.847,0.283 15.672,0.113 13.411,1.433 C11.573,2.506 11.173,4.688 11.251,6.018 C7.044,5.613 4.429,3.391 2.957,1.552 C2.854,1.423 2.688,1.355 2.532,1.365 C2.368,1.377 2.22,1.468 2.136,1.609 C1.44,2.784 1.247,4.083 1.58,5.366 C1.762,6.066 2.08,6.683 2.449,7.183 C2.272,7.096 2.101,6.987 1.94,6.857 C1.792,6.735 1.585,6.712 1.41,6.793 C1.236,6.876 1.125,7.052 1.125,7.245 C1.125,9.448 2.503,10.918 3.79,11.686 C3.582,11.661 3.365,11.615 3.146,11.548 C2.958,11.491 2.754,11.548 2.624,11.696 C2.494,11.843 2.463,12.053 2.544,12.232 C3.267,13.831 4.637,14.931 6.332,15.33 C4.852,16.199 2.871,16.625 1.057,16.416 C0.822,16.383 0.598,16.532 0.524,16.758 C0.45,16.984 0.547,17.232 0.754,17.348 C3.506,18.893 5.994,19.445 8.144,19.445 C11.273,19.445 13.688,18.277 15.158,17.3 C19.121,14.67 21.591,9.948 21.247,5.723 C21.882,5.254 22.832,4.388 23.421,3.457 C23.543,3.269 23.521,3.021 23.369,2.855 L23.369,2.855 Z" id="Shape"></path>
                    </g>
                </g>
            </g>
        </g>
    </g>
</svg>